<?xml version="1.0" encoding="UTF-8"?>
<!DOCTYPE svg PUBLIC "-//W3C//DTD SVG 1.1//EN" "http://www.w3.org/Graphics/SVG/1.1/DTD/svg11.dtd">
<!-- Creator: CorelDRAW 2019 (64-Bit) -->
<svg xmlns="http://www.w3.org/2000/svg" xml:space="preserve" width="98.6438mm" height="38.3379mm" version="1.1" style="shape-rendering:geometricPrecision; text-rendering:geometricPrecision; image-rendering:optimizeQuality; fill-rule:evenodd; clip-rule:evenodd"
viewBox="0 0 234.76 91.24"
 xmlns:xlink="http://www.w3.org/1999/xlink">
 <defs>
  <style type="text/css">
   <![CDATA[
    .fil0 {fill:white;fill-rule:nonzero}
   ]]>
  </style>
 </defs>
 <g id="Capa_x0020_1">
  <metadata id="CorelCorpID_0Corel-Layer"/>
  <g id="_1933705198912">
   <path class="fil0" d="M6.14 66.23c-1.32,2.04 -1.91,3.82 -1.77,5.35 0.11,1.24 0.9,2.13 2.37,2.67 0.64,0.19 1.23,0.26 1.77,0.22 0.54,-0.05 1.16,-0.13 1.85,-0.26 0.7,-0.13 1.56,-0.5 2.59,-1.14 1.03,-0.63 1.84,-1.36 2.43,-2.19 0.59,-0.83 0.86,-1.55 0.81,-2.17 -0.01,-0.12 -0.02,-0.23 -0.03,-0.31 -0.14,0.81 -0.79,1.62 -1.97,2.43 -0.67,0.39 -1.24,0.61 -1.69,0.65 -0.46,0.04 -0.84,-0.01 -1.14,-0.15 -0.74,-0.31 -1.15,-0.98 -1.24,-2.02 -0.09,-1.03 0.29,-1.94 1.13,-2.73 0.85,-0.79 1.73,-1.22 2.64,-1.3 1.41,-0.13 2.39,0.37 2.95,1.49 0.24,0.4 0.39,0.88 0.44,1.46 0.05,0.58 -0.03,1.3 -0.25,2.15 -0.46,1.33 -1.68,2.7 -3.64,4.08 -2.55,1.81 -4.92,2.82 -7.12,3.02 -2.53,0.23 -4.41,-0.54 -5.65,-2.31 -0.34,-0.51 -0.54,-1.1 -0.6,-1.76 -0.21,-2.32 0.92,-5.15 3.37,-8.5 0.86,-1.16 2.34,-2.97 4.46,-5.44 2.12,-2.46 3.78,-4.67 4.98,-6.61 1.2,-1.94 2.17,-4.22 2.89,-6.83 0.13,-0.39 0.38,-0.53 0.74,-0.44 0.36,0.09 0.52,0.35 0.48,0.77 -0.2,1.48 -0.76,3.2 -1.67,5.16 -0.91,1.96 -1.69,3.48 -2.35,4.56 -0.65,1.08 -1.89,2.94 -3.69,5.59 -1.81,2.64 -2.84,4.17 -3.1,4.56zm9.61 -30.34c0.54,-0.55 1.15,-0.85 1.86,-0.92 0.7,-0.06 1.26,0.11 1.67,0.51 0.41,0.4 0.63,0.77 0.66,1.1 0.1,1.12 -0.16,1.98 -0.77,2.57 -0.61,0.6 -1.27,0.93 -1.98,0.99 -0.7,0.06 -1.26,-0.11 -1.67,-0.51 -0.41,-0.4 -0.63,-0.77 -0.66,-1.1 -0.03,-0.33 -0.02,-0.72 0.02,-1.16 0.04,-0.44 0.33,-0.94 0.87,-1.49zm65.43 -15.81c0.74,-0.07 1.17,0.52 1.28,1.76 0.11,1.24 -0.08,3.66 -0.57,7.25 -0.49,3.59 -1.47,8.48 -2.94,14.66 -1.47,6.18 -3.09,11.25 -4.87,15.21 0.62,-0.1 1.72,-0.24 3.31,-0.42 1.59,-0.18 2.89,-0.34 3.9,-0.47 1.01,-0.13 2.22,-0.38 3.63,-0.73 1.41,-0.36 2.55,-0.78 3.42,-1.28 2.1,-1.23 3.25,-2.88 3.44,-4.94 -0.13,-0.53 -0.13,-0.83 0.01,-0.91 0.14,-0.07 0.26,-0.01 0.36,0.19 0.34,0.51 0.53,1.08 0.59,1.7 0.06,0.62 -0.2,1.51 -0.76,2.67 -0.56,1.16 -1.78,2.22 -3.66,3.21 -1.87,0.98 -6.88,1.88 -15.03,2.69 -1.72,3.16 -4,6.01 -6.84,8.56 -2.84,2.55 -5.9,4.62 -9.18,6.2 -3.28,1.59 -6.09,2.49 -8.43,2.69 -2.34,0.21 -4.34,0.12 -6,-0.28 -3.2,-0.76 -4.89,-2.19 -5.08,-4.3 -0.24,-2.73 2.04,-5.36 6.87,-7.88 6.18,-3.22 15,-5.35 26.47,-6.38 3.17,-10.3 5.29,-18.56 6.36,-24.79 -3.04,8.45 -6.74,14.46 -11.09,18.02 -2.29,1.87 -4.58,2.91 -6.86,3.12 -2.28,0.2 -4.1,-0.26 -5.48,-1.39 -1.37,-1.13 -2.16,-2.77 -2.35,-4.92 -0.4,-4.51 2.01,-12.03 7.24,-22.55 1.63,-3.27 2.88,-6.56 3.75,-9.85 1.01,-3.64 1.4,-6.72 1.18,-9.24 -0.23,-2.52 -1.2,-4.25 -2.94,-5.18 -1.73,-0.93 -3.76,-1.29 -6.07,-1.08 -0.91,0.08 -1.87,0.27 -2.89,0.57 -7.32,2.07 -13.7,6.55 -19.14,13.42 -2.74,3.46 -4.66,6.93 -5.77,10.4 -1.13,3.73 -1.57,6.88 -1.34,9.45 0.1,1.08 0.33,2.06 0.7,2.94 1.1,2.95 2.92,4.87 5.46,5.77 1.29,0.43 2.6,0.58 3.92,0.46 4.59,-0.41 8.28,-3.33 11.05,-8.75 1.56,-3.1 2.24,-5.75 2.04,-7.94 -0.26,-2.86 -1.67,-4.17 -4.23,-3.94 -0.5,0.04 -1.09,0.17 -1.78,0.38 -0.69,0.21 -1.07,0.19 -1.13,-0.06 -0.07,-0.33 0.38,-0.66 1.35,-1 0.97,-0.34 1.91,-0.55 2.82,-0.63 2.15,-0.19 3.68,0.59 4.59,2.34 0.4,0.76 0.64,1.59 0.72,2.5 0.16,1.82 -0.29,3.99 -1.36,6.51 -2.11,4.82 -5.52,8.46 -10.22,10.93 -1.43,0.75 -2.77,1.19 -4.01,1.3 -4.01,0.36 -7.29,-0.81 -9.83,-3.5 -2.21,-2.26 -3.45,-4.97 -3.73,-8.12 -0.28,-3.15 0.2,-6.36 1.45,-9.64 1.25,-3.28 2.99,-6.36 5.21,-9.23 2.23,-2.87 4.66,-5.34 7.32,-7.41 2.65,-2.07 5.48,-3.85 8.47,-5.33 3.16,-1.58 6.1,-2.49 8.83,-2.73 2.73,-0.24 5.19,-0.05 7.38,0.59 2.28,0.8 3.95,1.99 5.02,3.59 1.06,1.59 1.67,3.32 1.84,5.19 0.42,4.68 -0.83,10.03 -3.76,16.05 -4.52,9.58 -7.12,16.95 -7.79,22.1 -0.09,0.88 -0.09,1.8 -0,2.75 0.09,0.95 0.48,1.81 1.17,2.59 0.7,0.77 1.64,1.1 2.84,1 1.7,-0.15 3.47,-1.04 5.33,-2.67 2.21,-1.87 4.33,-4.79 6.35,-8.77 3.37,-6.64 5.75,-13.35 7.15,-20.11 0.06,-0.67 0.39,-1.22 0.98,-1.65 0.59,-0.43 1.03,-0.66 1.32,-0.68zm-40 53.78c0.03,0.33 0.14,0.65 0.34,0.97 1,1.33 3.06,1.85 6.18,1.57 3.13,-0.28 6.06,-1.06 8.8,-2.35 2.74,-1.29 5.37,-3.06 7.88,-5.31 2.51,-2.25 4.51,-4.86 6,-7.83 -10.85,0.97 -19.02,3.39 -24.51,7.26 -3.26,2.29 -4.82,4.19 -4.69,5.68zm62.1 -42.49c-0.68,0.81 -1.58,2.59 -2.71,5.34 -1.13,2.75 -1.77,4.79 -1.92,6.12 -0.15,1.33 -0.19,2.4 -0.12,3.2 0.07,0.81 0.42,1.18 1.04,1.13 0.79,-0.07 1.69,-0.88 2.72,-2.43 1.51,-2.26 2.94,-5.17 4.29,-8.71 0.13,-0.39 0.3,-0.61 0.5,-0.67 0.32,-0.15 0.5,-0.04 0.53,0.33 0.02,0.21 -0.02,0.46 -0.12,0.76 -3.12,8.04 -5.98,12.18 -8.59,12.41 -1.2,0.11 -2.23,-0.39 -3.07,-1.48 -0.43,-0.59 -0.69,-1.4 -0.78,-2.43 -0.09,-1.03 0,-2.32 0.28,-3.84 -2.83,5.64 -5.45,8.56 -7.85,8.78 -0.66,0.06 -1.28,-0.09 -1.86,-0.46 -1.32,-0.76 -2.07,-2.19 -2.26,-4.3 -0.36,-4.06 1.03,-8.33 4.17,-12.83 1.78,-2.5 4.09,-4.23 6.92,-5.19 0.77,-0.28 1.5,-0.45 2.21,-0.51 1.9,-0.17 3.58,0.35 5.02,1.55 0.45,0.42 0.62,0.84 0.49,1.27 -0.13,0.43 -0.47,0.63 -1.01,0.59 -0.59,-1.45 -1.65,-2.11 -3.18,-1.97 -1.78,0.16 -3.85,1.76 -6.2,4.81 -1.34,1.79 -2.55,3.86 -3.64,6.21 -1.37,2.83 -1.99,5.06 -1.84,6.67 0.14,1.61 0.73,2.38 1.77,2.28 2.48,-0.22 5.39,-4.32 8.73,-12.3 0.65,-1.6 1.22,-2.71 1.71,-3.31 0.49,-0.61 1.15,-0.95 1.97,-1.02 0.17,-0.01 0.6,0.01 1.29,0.07 0.69,0.06 1.2,0.04 1.53,-0.07zm18.45 10.3c-0.31,-3.44 0.83,-9.34 3.42,-17.71l-3.23 0.29c-0.21,0.02 -0.35,-0.08 -0.43,-0.31 -0.08,-0.22 -0.08,-0.45 0,-0.69 0.08,-0.24 0.23,-0.36 0.43,-0.38l3.73 -0.33c1.2,-3.4 2.34,-6.26 3.43,-8.57 1.09,-2.31 2.13,-3.89 3.14,-4.76 1.01,-0.86 1.75,-1.31 2.23,-1.36 0.48,-0.04 0.82,-0.03 1.04,0.03 0.99,0.37 1.55,1.27 1.68,2.7 0.13,1.43 -0.19,3.2 -0.96,5.31 -0.77,2.11 -1.53,4.08 -2.29,5.9l2.98 -0.27c0.21,-0.02 0.35,0.08 0.43,0.31 0.08,0.22 0.08,0.45 -0,0.69 -0.08,0.24 -0.23,0.36 -0.44,0.38l-3.6 0.32c-1.93,4.05 -4.38,7.71 -7.34,10.98l-0.86 6.46c-0.08,0.55 -0.09,1.08 -0.04,1.6 0.05,0.52 0.24,1.03 0.58,1.54 0.34,0.51 0.82,0.74 1.44,0.68 0.7,-0.06 1.47,-0.38 2.29,-0.96 1.85,-1.67 3.77,-4.99 5.74,-9.96 0.13,-0.39 0.31,-0.63 0.53,-0.74 0.22,-0.1 0.36,-0.06 0.42,0.12 0.06,0.18 0.02,0.49 -0.11,0.92 -1.11,2.98 -2.01,5.1 -2.68,6.37 -1.91,3.8 -4.13,5.82 -6.66,6.04 -1.28,0.11 -2.38,-0.27 -3.29,-1.14 -0.91,-0.88 -1.43,-2.04 -1.56,-3.49zm10.81 -19.74c2.29,-5.13 3.36,-8.65 3.19,-10.55 -0.07,-0.83 -0.26,-1.23 -0.55,-1.2 -0.46,0.04 -1.09,0.77 -1.9,2.17 -0.81,1.41 -2.09,4.69 -3.84,9.86l3.1 -0.28zm-0.68 1.44l-2.92 0.26c-0.39,1.2 -1.26,4.06 -2.61,8.56 2.03,-2.52 3.87,-5.46 5.53,-8.82zm6.16 12.22c-0.45,1.46 -0.6,3.06 -0.45,4.8 0.1,1.16 0.44,2.06 1.02,2.69 0.58,0.64 1.34,0.91 2.3,0.83 3.77,-0.34 6.87,-4.18 9.29,-11.53 0.23,-0.69 0.56,-1.01 0.98,-0.96 0.17,0.03 0.26,0.12 0.28,0.29 0.01,0.17 -0.35,1.29 -1.11,3.38 -0.75,2.09 -1.55,3.8 -2.39,5.13 -1.85,3.09 -4.33,4.77 -7.43,5.05 -1.66,0.15 -3.11,-0.26 -4.37,-1.24 -1.26,-0.97 -1.97,-2.39 -2.13,-4.25 -0.17,-1.86 0.1,-3.88 0.8,-6.05 0.7,-2.17 1.74,-4.22 3.11,-6.16 1.37,-1.94 3.01,-3.41 4.92,-4.42 0.91,-0.5 1.81,-0.79 2.68,-0.87 0.87,-0.08 1.7,0.1 2.49,0.53 0.76,0.52 1.16,1.13 1.23,1.83 0.22,2.48 -1.05,5 -3.83,7.54 -0.85,0.79 -2.07,1.53 -3.68,2.24 -1.61,0.71 -2.84,1.1 -3.71,1.18zm9.54 -10.87c-0.07,-0.83 -0.44,-1.21 -1.1,-1.15 -1.16,0.1 -2.79,1.69 -4.89,4.76 -1.25,1.86 -2.32,3.92 -3.2,6.17 0.7,-0.06 1.71,-0.4 3.01,-1.02 1.3,-0.62 2.41,-1.38 3.33,-2.3 2.1,-2.15 3.06,-4.3 2.86,-6.45zm20.78 -2.74c-4.29,9.4 -6.31,15.46 -6.07,18.19 0.1,1.08 0.54,1.58 1.32,1.51 2.11,-0.19 4.63,-4.02 7.54,-11.5 0.2,-0.6 0.42,-0.85 0.68,-0.75 0.26,0.1 0.4,0.26 0.42,0.46 0.02,0.21 -0.04,0.46 -0.18,0.77 -1.8,4.63 -3.38,7.84 -4.74,9.66 -1.36,1.81 -2.8,2.79 -4.31,2.92 -1.51,0.14 -2.71,-0.34 -3.6,-1.43 -0.46,-0.5 -0.73,-1.22 -0.82,-2.15 -0.08,-0.93 0.02,-2.08 0.32,-3.44 0.3,-1.36 1.24,-3.62 2.84,-6.76 0.39,-0.79 0.56,-1.4 0.52,-1.83 -0.04,-0.43 -0.41,-0.62 -1.11,-0.56 -0.7,0.06 -1.97,1.11 -3.79,3.16 -2.74,3 -5.25,7.35 -7.53,13.07 -0.21,0.44 -0.47,0.72 -0.77,0.85 -0.3,0.13 -0.91,0.26 -1.81,0.38 -0.91,0.12 -1.5,0.28 -1.77,0.47 0.54,-1.38 1.61,-4.21 3.18,-8.48 2.83,-7.56 4.73,-11.9 5.72,-13.03 0.45,-0.54 1.11,-0.85 1.98,-0.93 0.17,-0.01 0.6,0.01 1.29,0.07 0.69,0.06 1.2,0.04 1.53,-0.07 -1.46,0.96 -3.61,5.08 -6.47,12.35 1.73,-2.57 3.33,-4.65 4.79,-6.22 1.47,-1.57 3.26,-3.07 5.39,-4.49 2.13,-1.42 3.71,-2.18 4.74,-2.27 0.25,-0.02 0.48,-0 0.69,0.06zm5.75 10.38c-0.45,1.46 -0.6,3.06 -0.45,4.8 0.1,1.16 0.44,2.06 1.02,2.69 0.58,0.64 1.34,0.91 2.3,0.83 3.77,-0.34 6.87,-4.18 9.29,-11.53 0.23,-0.69 0.56,-1.01 0.98,-0.96 0.26,0.1 0.31,0.41 0.15,0.93 -1.4,3.92 -2.52,6.55 -3.36,7.87 -1.85,3.09 -4.33,4.77 -7.43,5.05 -1.66,0.15 -3.11,-0.26 -4.37,-1.24 -1.26,-0.97 -1.97,-2.39 -2.13,-4.25 -0.17,-1.86 0.1,-3.88 0.8,-6.05 0.7,-2.17 1.74,-4.22 3.11,-6.16 1.37,-1.94 3.01,-3.41 4.92,-4.42 0.91,-0.5 1.81,-0.79 2.68,-0.87 0.87,-0.08 1.7,0.1 2.49,0.53 0.76,0.52 1.16,1.13 1.23,1.83 0.22,2.48 -1.05,5 -3.83,7.54 -0.85,0.79 -2.07,1.53 -3.68,2.24 -1.61,0.71 -2.84,1.1 -3.71,1.18zm9.54 -10.87c-0.07,-0.83 -0.44,-1.21 -1.1,-1.15 -1.16,0.1 -2.79,1.69 -4.89,4.76 -1.25,1.86 -2.32,3.92 -3.2,6.17 0.7,-0.06 1.71,-0.4 3.01,-1.02 1.3,-0.62 2.41,-1.38 3.33,-2.3 2.1,-2.15 3.06,-4.3 2.86,-6.45zm-4.23 -4.63c-0.04,0 -0.12,-0.02 -0.23,-0.07 -0.11,-0.05 -0.17,-0.15 -0.18,-0.3 -0.01,-0.14 0.02,-0.28 0.09,-0.41 0.07,-0.13 0.62,-0.66 1.64,-1.59 1.02,-0.93 2.14,-1.89 3.34,-2.9 1.2,-1.01 2.08,-1.75 2.62,-2.24 0.54,-0.49 1.09,-0.75 1.65,-0.8 0.56,-0.05 1.06,0.01 1.52,0.18 0.45,0.17 0.69,0.41 0.72,0.72 0.03,0.31 -0.01,0.6 -0.11,0.85 -0.16,0.52 -1.93,1.73 -5.31,3.64 -3.38,1.91 -5.29,2.88 -5.75,2.92zm13.32 22.28c0.55,0.03 0.92,0.04 1.13,0.02 1.66,-0.15 3.2,-1.27 4.64,-3.36 0.77,-1.15 2.08,-4 3.93,-8.55 0.06,-0.21 0.2,-0.33 0.41,-0.35 0.37,-0.07 0.57,0.05 0.6,0.38 0.01,0.08 -0.06,0.33 -0.22,0.74 -0.15,0.41 -0.29,0.82 -0.42,1.23 -0.13,0.41 -0.35,1 -0.65,1.78 -0.31,0.78 -0.57,1.41 -0.8,1.89 -0.23,0.48 -0.52,1.07 -0.87,1.77 -0.35,0.7 -0.72,1.25 -1.1,1.66l-1.18 1.48c-0.64,0.77 -1.42,1.34 -2.35,1.71 -1.49,0.63 -2.97,0.81 -4.46,0.52 -0.91,0.5 -1.74,0.78 -2.49,0.85 -2.94,0.26 -4.82,-0.74 -5.65,-3 -0.17,-0.53 -0.29,-1.17 -0.36,-1.94 -0.07,-0.77 0.12,-1.52 0.58,-2.27 0.45,-0.75 0.97,-1.17 1.55,-1.26 1.75,-4.2 3.23,-7.99 4.43,-11.35 1.34,-3.67 3.11,-5.6 5.3,-5.79 0.58,-0.05 1.16,0.03 1.74,0.25 0.58,0.22 0.82,0.5 0.7,0.84 -0.12,0.34 -0.41,0.43 -0.88,0.27 -0.47,-0.17 -0.88,-0.23 -1.21,-0.2 -0.33,0.03 -0.62,0.12 -0.85,0.26 -1.35,0.79 -1.92,2.28 -1.73,4.47 0.1,1.16 0.35,2.1 0.75,2.81 0.4,0.72 0.84,1.49 1.33,2.32 1.14,2.07 1.78,3.78 1.9,5.15 0.12,1.37 -0.19,2.75 -0.94,4.15 -0.75,1.4 -1.69,2.57 -2.82,3.51zm-2.15 -0.25c1.7,-1.57 2.4,-3.93 2.12,-7.07 -0.11,-1.28 -0.42,-3.03 -0.91,-5.24 -0.49,-2.21 -0.77,-3.71 -0.84,-4.49 -0.07,-0.79 -0.1,-1.33 -0.08,-1.62 -2.58,6.57 -4.19,10.58 -4.81,12.01 0.87,-0.08 1.36,0.5 1.47,1.75 0.22,2.44 1.23,4 3.05,4.67zm-4.81 -1.26c0.02,0.25 0.07,0.52 0.13,0.8 0.43,1.09 1.25,1.58 2.45,1.47 0.5,-0.04 0.9,-0.16 1.22,-0.36 -1.62,-0.81 -2.58,-2.29 -2.9,-4.43 -0.68,0.81 -0.98,1.65 -0.9,2.52z"/>
   <path class="fil0" d="M99.15 85.89c-0.35,-3.95 0.96,-10.73 3.93,-20.34l-3.71 0.33c-0.24,0.02 -0.4,-0.1 -0.5,-0.35 -0.09,-0.26 -0.09,-0.52 0,-0.79 0.1,-0.27 0.26,-0.42 0.5,-0.44l4.28 -0.38c1.38,-3.91 2.69,-7.19 3.94,-9.84 1.25,-2.65 2.45,-4.47 3.61,-5.46 1.16,-0.99 2.01,-1.51 2.56,-1.56 0.55,-0.05 0.94,-0.04 1.19,0.04 1.14,0.43 1.78,1.46 1.93,3.1 0.15,1.64 -0.22,3.68 -1.11,6.1 -0.89,2.43 -1.76,4.69 -2.63,6.78l3.42 -0.31c0.24,-0.02 0.4,0.1 0.5,0.35 0.09,0.26 0.09,0.52 -0,0.79 -0.1,0.27 -0.26,0.42 -0.5,0.44l-4.14 0.37c-2.22,4.66 -5.03,8.86 -8.43,12.62l-0.99 7.42c-0.09,0.63 -0.1,1.24 -0.05,1.84 0.05,0.59 0.27,1.19 0.66,1.77 0.39,0.59 0.94,0.85 1.65,0.79 0.81,-0.07 1.69,-0.44 2.63,-1.1 2.13,-1.92 4.33,-5.73 6.6,-11.45 0.15,-0.44 0.35,-0.73 0.61,-0.85 0.25,-0.12 0.41,-0.07 0.48,0.14 0.07,0.21 0.03,0.56 -0.12,1.05 -1.28,3.42 -2.3,5.86 -3.08,7.32 -2.2,4.37 -4.75,6.68 -7.65,6.94 -1.47,0.13 -2.74,-0.31 -3.79,-1.31 -1.05,-1.01 -1.65,-2.35 -1.8,-4.01zm12.42 -22.68c2.64,-5.89 3.86,-9.93 3.66,-12.12 -0.08,-0.95 -0.29,-1.41 -0.63,-1.38 -0.52,0.05 -1.25,0.88 -2.19,2.5 -0.93,1.62 -2.41,5.39 -4.41,11.33l3.57 -0.32zm-0.79 1.65l-3.35 0.3c-0.45,1.38 -1.45,4.66 -3,9.83 2.33,-2.89 4.45,-6.27 6.36,-10.13zm2.06 21.39c-0.18,-2.04 0.48,-4.6 1.98,-7.65 -0.76,0.07 -1.01,-0.29 -0.74,-1.08l1.06 -2.61c1.34,-3.24 2.44,-5.97 3.29,-8.2 0.39,-1.04 1.27,-1.62 2.65,-1.75l4.35 -0.39c-1.6,1.39 -3.11,3.93 -4.53,7.63 -1.42,3.7 -2.51,6.6 -3.28,8.71 -0.77,2.11 -1.11,3.68 -1.01,4.73 0.09,1.05 0.34,1.77 0.73,2.16 0.39,0.4 0.9,0.57 1.52,0.51 0.9,-0.08 2.08,-1.14 3.53,-3.19 2.26,-3.17 5.24,-9.7 8.96,-19.57 0.43,-1.05 1.32,-1.63 2.65,-1.75l3.85 -0.34c-0.97,0.9 -1.72,1.81 -2.24,2.72 -0.52,0.91 -1.2,2.5 -2.05,4.79 -2.34,5.96 -3.6,9.89 -3.76,11.77 -0.08,0.68 -0.1,1.3 -0.05,1.87 0.14,1.52 0.73,2.28 1.79,2.28 2.57,-0.23 5.38,-4.48 8.42,-12.76 0.23,-0.69 0.49,-0.98 0.79,-0.86 0.3,0.12 0.46,0.29 0.48,0.53 0.02,0.24 -0.14,0.8 -0.5,1.7 -0.35,0.89 -0.69,1.76 -1.02,2.61 -0.33,0.84 -0.85,2.01 -1.56,3.48 -0.71,1.48 -1.38,2.65 -2.02,3.52 -1.67,2.26 -3.39,3.47 -5.18,3.63 -1.78,0.16 -3.08,-0.52 -3.88,-2.03 -0.35,-0.69 -0.57,-1.58 -0.67,-2.67 -0.1,-1.09 0.02,-2.47 0.35,-4.13 -2.93,6.4 -5.86,9.73 -8.81,9.99 -2.57,0.23 -4.16,-0.71 -4.78,-2.81 -0.16,-0.22 -0.26,-0.5 -0.29,-0.84zm35.4 -27.83c0.19,2.14 -0.98,4.28 -3.52,6.43 0.96,-0.04 2.23,-0.13 3.82,-0.27 1.59,-0.14 3.59,-0.44 6,-0.9 0.11,0.13 0.19,0.51 0.24,1.13 0.06,0.62 -0.15,1.56 -0.61,2.82 -0.46,1.26 -0.88,2.36 -1.25,3.28 -0.37,0.92 -0.73,1.79 -1.06,2.61 -0.33,0.82 -0.7,1.82 -1.1,3.01 -0.4,1.19 -0.72,2.27 -0.97,3.25 -0.87,3.72 -0.51,5.51 1.06,5.37 2,-0.18 4.59,-4.41 7.78,-12.7 0.28,-0.65 0.53,-0.91 0.76,-0.79 0.23,0.12 0.35,0.29 0.37,0.51 0.02,0.21 -0.22,0.98 -0.73,2.29 -0.51,1.32 -1.06,2.67 -1.65,4.07 -0.59,1.4 -1.57,3.04 -2.94,4.94 -1.61,2.35 -3.25,3.6 -4.91,3.75 -1.85,0.17 -3.24,-0.84 -4.15,-3.01 -0.18,-0.42 -0.31,-1.05 -0.39,-1.91 -0.08,-0.86 0.09,-2.02 0.51,-3.5 0.42,-1.48 1.13,-3.29 2.14,-5.44 1.01,-2.15 1.56,-3.41 1.67,-3.78 0.11,-0.37 0.15,-0.72 0.12,-1.05 -0.13,-1.47 -2.1,-2.09 -5.92,-1.84l-0.65 2.36c-2.29,8.11 -4.7,13.63 -7.22,16.54 -0.44,0.47 -0.69,0.35 -0.75,-0.36 -0.01,-0.14 0.02,-0.31 0.1,-0.51 2.35,-3.76 4.28,-8.13 5.8,-13.1 1.52,-4.98 2.47,-9.66 2.84,-14.06 0.15,-1.5 0.75,-2.3 1.8,-2.39 1.05,-0.09 1.87,0.5 2.46,1.79 0.18,0.42 0.3,0.91 0.35,1.48zm30.93 2.48c-4.93,10.8 -7.25,17.76 -6.97,20.9 0.11,1.24 0.62,1.81 1.52,1.73 2.43,-0.22 5.31,-4.62 8.67,-13.22 0.23,-0.69 0.49,-0.98 0.79,-0.86 0.3,0.12 0.46,0.29 0.48,0.53 0.02,0.24 -0.05,0.53 -0.21,0.88 -2.06,5.31 -3.88,9.01 -5.44,11.09 -1.56,2.08 -3.21,3.2 -4.95,3.36 -1.74,0.16 -3.11,-0.39 -4.14,-1.64 -0.53,-0.58 -0.84,-1.4 -0.94,-2.47 -0.1,-1.07 0.03,-2.39 0.37,-3.95 0.34,-1.56 1.43,-4.15 3.26,-7.77 0.45,-0.9 0.65,-1.6 0.6,-2.1 -0.04,-0.5 -0.47,-0.71 -1.28,-0.64 -0.81,0.07 -2.26,1.28 -4.35,3.63 -3.14,3.45 -6.03,8.45 -8.65,15.01 -0.24,0.5 -0.54,0.83 -0.88,0.98 -0.35,0.15 -1.04,0.3 -2.08,0.44 -1.04,0.14 -1.72,0.32 -2.04,0.54 0.62,-1.59 1.84,-4.84 3.66,-9.75 3.25,-8.68 5.44,-13.67 6.57,-14.97 0.52,-0.62 1.28,-0.98 2.28,-1.07 0.19,-0.02 0.68,0.01 1.48,0.08 0.8,0.07 1.38,0.04 1.75,-0.09 -1.67,1.11 -4.15,5.84 -7.43,14.18 1.99,-2.96 3.82,-5.34 5.51,-7.14 1.68,-1.8 3.75,-3.52 6.19,-5.16 2.44,-1.63 4.26,-2.5 5.45,-2.61 0.29,-0.03 0.55,-0 0.8,0.07zm15.2 -2.94c3.47,-0.31 5.4,1.72 5.79,6.1 0.18,2 -0.15,4.18 -0.99,6.56 -1.06,3.21 -2.8,6.19 -5.24,8.95 0.72,1.13 1.9,1.63 3.51,1.48 1.28,-0.11 2.44,-0.87 3.47,-2.25 1.29,-1.6 2.2,-2.99 2.72,-4.16 0.52,-1.17 0.9,-2.03 1.13,-2.58 0.24,-0.55 0.54,-1.33 0.9,-2.35 0.36,-1.02 0.58,-1.63 0.66,-1.86 0.08,-0.22 0.23,-0.34 0.47,-0.37 0.47,-0.09 0.72,0.06 0.76,0.44 0.01,0.14 -0.02,0.31 -0.1,0.51l-0.34 1.04c-0.23,0.69 -0.4,1.19 -0.51,1.48 -0.12,0.3 -0.32,0.83 -0.61,1.6 -0.29,0.77 -0.55,1.38 -0.77,1.83 -0.22,0.45 -0.53,1.05 -0.92,1.81 -0.39,0.75 -0.74,1.36 -1.06,1.82 -0.32,0.46 -0.72,0.97 -1.19,1.54 -0.48,0.57 -0.94,1.02 -1.39,1.35 -1.12,0.82 -2.21,1.28 -3.26,1.37 -1.95,0.17 -3.53,-0.31 -4.73,-1.45 -2.04,1.81 -3.99,2.8 -5.85,2.97 -3.47,0.31 -5.4,-1.72 -5.79,-6.1 -0.18,-2 0.15,-4.18 0.99,-6.56 1.13,-3.46 2.88,-6.47 5.27,-9.03 2.38,-2.56 4.74,-3.95 7.07,-4.16zm0.98 2.14c-1.28,0.11 -2.73,1.11 -4.34,2.98 -1.61,1.87 -2.97,4.34 -4.08,7.41 -1.36,3.57 -1.94,6.45 -1.74,8.64 0.2,2.19 1.13,3.21 2.79,3.06 1.19,-0.11 2.46,-0.87 3.82,-2.28 -0.86,-1.03 -1.34,-2.16 -1.45,-3.39 -0.09,-2.05 0.65,-3.15 2.22,-3.29 0.62,-0.06 1.15,0.11 1.59,0.5 0.44,0.39 0.68,0.77 0.71,1.12 0.03,0.36 0.02,0.73 -0.04,1.12 0.7,-1.26 1.48,-3.03 2.33,-5.31 0.97,-2.53 1.35,-4.96 1.14,-7.29 -0.21,-2.33 -1.19,-3.42 -2.95,-3.26zm32.35 -13.68c1.52,-2.34 2.2,-4.39 2.04,-6.15 -0.13,-1.43 -1.03,-2.45 -2.72,-3.06 -0.74,-0.22 -1.42,-0.3 -2.04,-0.25 -0.62,0.06 -1.33,0.16 -2.13,0.3 -0.8,0.14 -1.79,0.58 -2.97,1.31 -1.18,0.73 -2.11,1.57 -2.79,2.52 -0.68,0.95 -0.99,1.78 -0.93,2.49 0.01,0.14 0.02,0.26 0.03,0.36 0.16,-0.92 0.91,-1.86 2.27,-2.79 0.77,-0.45 1.42,-0.7 1.95,-0.75 0.52,-0.05 0.96,0.01 1.31,0.17 0.85,0.36 1.32,1.13 1.43,2.32 0.11,1.19 -0.33,2.23 -1.3,3.14 -0.97,0.9 -1.98,1.4 -3.03,1.49 -1.62,0.14 -2.75,-0.43 -3.39,-1.71 -0.28,-0.45 -0.45,-1.01 -0.51,-1.68 -0.06,-0.67 0.03,-1.49 0.28,-2.47 0.53,-1.53 1.93,-3.1 4.18,-4.69 2.93,-2.08 5.65,-3.24 8.17,-3.46 2.9,-0.26 5.07,0.63 6.49,2.65 0.39,0.59 0.62,1.26 0.68,2.02 0.24,2.66 -1.05,5.92 -3.87,9.77 -0.98,1.33 -2.69,3.42 -5.12,6.25 -2.43,2.83 -4.34,5.36 -5.72,7.59 -1.38,2.23 -2.49,4.85 -3.32,7.85 -0.15,0.45 -0.44,0.61 -0.85,0.51 -0.42,-0.11 -0.6,-0.4 -0.55,-0.89 0.23,-1.7 0.87,-3.67 1.91,-5.92 1.04,-2.25 1.94,-4 2.69,-5.24 0.75,-1.24 2.17,-3.38 4.24,-6.42 2.08,-3.04 3.26,-4.79 3.56,-5.24zm-11.04 34.86c-0.61,0.63 -1.33,0.98 -2.13,1.05 -0.81,0.07 -1.45,-0.12 -1.92,-0.58 -0.47,-0.46 -0.73,-0.88 -0.76,-1.26 -0.11,-1.28 0.18,-2.27 0.89,-2.96 0.71,-0.69 1.46,-1.07 2.27,-1.14 0.81,-0.07 1.45,0.12 1.92,0.58 0.47,0.46 0.73,0.88 0.76,1.26 0.03,0.38 0.03,0.82 -0.02,1.33 -0.05,0.51 -0.38,1.08 -1,1.71z"/>
  </g>
 </g>
</svg>
