<?xml version="1.0" encoding="UTF-8"?>
<!DOCTYPE svg PUBLIC "-//W3C//DTD SVG 1.1//EN" "http://www.w3.org/Graphics/SVG/1.1/DTD/svg11.dtd">
<!-- Creator: CorelDRAW 2019 (64-Bit) -->
<svg xmlns="http://www.w3.org/2000/svg" xml:space="preserve" width="104.006mm" height="43.6997mm" version="1.1" style="shape-rendering:geometricPrecision; text-rendering:geometricPrecision; image-rendering:optimizeQuality; fill-rule:evenodd; clip-rule:evenodd"
viewBox="0 0 261.32 109.8"
 xmlns:xlink="http://www.w3.org/1999/xlink">
 <defs>
  <style type="text/css">
   <![CDATA[
    .fil0 {fill:black}
   ]]>
  </style>
 </defs>
 <g id="Capa_x0020_1">
  <metadata id="CorelCorpID_0Corel-Layer"/>
  <path class="fil0" d="M165.71 59.9c1.38,1.02 2.51,2.43 3.28,4.12l0.03 0.07 0.03 0.07c0.18,0.41 0.33,0.83 0.46,1.26l0.29 1.24c0.03,0.15 0.05,0.31 0.07,0.46l2.74 -0.52 1.38 1.72c1.75,-1.98 4.16,-3.07 6.79,-3.3 0.84,-0.08 1.74,-0 2.59,0.07l4.83 -1.68 1.2 2.42c1.63,-0.81 3.34,-1.43 5.06,-1.58 1.14,-0.1 2.29,0.01 3.38,0.33l3.77 1.13c2.75,-2.4 5.99,-4.16 9.73,-4.5 7.16,-0.64 11.65,3.76 13.05,10.06 1.77,-0.21 3.47,0.2 4.86,1.06 0.22,-0.54 0.46,-1.07 0.7,-1.59 0.97,-2.09 2,-4.21 3.19,-6.18 0.29,-0.47 0.58,-0.94 0.88,-1.41 -2.41,-0.76 -4.45,-2.39 -5.74,-4.81 -0.78,-1.36 -1.21,-2.87 -1.35,-4.44 -0.15,-1.63 0.08,-3.28 0.48,-4.86l0.07 -0.29 0.1 -0.28c1.21,-3.48 3.94,-6.14 6.88,-8.23 3.53,-2.51 7.56,-4.48 11.93,-4.87 5.19,-0.46 9.92,1.31 12.97,5.63l0.06 0.08 0.06 0.08c1.04,1.58 1.64,3.37 1.81,5.24 0.49,5.44 -2.24,10.64 -5.37,14.9 -1.76,2.4 -3.79,4.74 -5.73,7 -1.93,2.24 -3.86,4.65 -5.42,7.17 -1.24,2.01 -2.12,4.27 -2.75,6.55l-0.05 0.19 -0.06 0.19c-0.19,0.55 -0.43,1.06 -0.71,1.53 1.15,1.36 1.92,2.96 2.09,4.78 0.08,0.89 0.06,1.79 -0.03,2.67 -0.23,2.28 -1.36,4.22 -2.93,5.84 -1.75,1.79 -3.98,2.9 -6.48,3.12 -2.72,0.24 -5.36,-0.58 -7.33,-2.5 -0.69,-0.68 -1.29,-1.43 -1.76,-2.24 -0.66,0.73 -1.38,1.4 -2.18,1.98 -2.02,1.47 -4.3,2.49 -6.8,2.71 -1.72,0.15 -3.39,0.03 -4.98,-0.4 -1.9,1.07 -3.96,1.81 -6.19,2.01 -2.92,0.26 -5.4,-0.32 -7.4,-1.52 -2.01,1.7 -4.38,2.88 -7.14,3.12 -3.92,0.35 -7.53,-1.03 -10.07,-4.04 -0.07,-0.08 -0.13,-0.16 -0.2,-0.23 -0.02,0.04 -0.03,0.09 -0.05,0.13l-0.09 0.22 -0.1 0.21c-0.91,1.89 -2.36,3.42 -4.3,4.27 -1.24,0.54 -2.65,0.78 -3.99,0.96 -0.01,0 -0.03,0 -0.04,0.01l-12.29 -0.91c-1.3,-0.78 -2.43,-1.85 -3.36,-3.14 -2.49,3.22 -5.78,5.75 -9.97,6.12 -2.58,0.23 -4.99,-0.34 -6.97,-1.62 -1.93,1.55 -4.17,2.62 -6.77,2.85 -2.57,0.23 -4.98,-0.21 -6.99,-1.28 -1.97,1.46 -4.26,2.44 -6.93,2.68 -3.48,0.31 -6.74,-0.82 -9.27,-3.24 -2.36,-2.27 -3.65,-5.24 -3.94,-8.49 -0.43,-4.8 0.79,-11.04 2.27,-16.66 -0.95,-0.8 -1.71,-1.85 -2.17,-3.09 -0.64,-1.71 -0.66,-3.57 -0.08,-5.3 -0.52,0.33 -1.06,0.64 -1.61,0.93 -3.45,1.81 -10.02,2.7 -14.99,3.24 -1.91,2.83 -4.17,5.39 -6.73,7.69 -3.39,3.04 -7.15,5.62 -11.25,7.6 -3.48,1.68 -7.36,3.14 -11.23,3.49 -2.82,0.25 -5.73,0.21 -8.49,-0.45 -5.4,-1.28 -9.99,-4.61 -10.52,-10.5 -0.64,-7.15 5.13,-11.9 10.84,-14.89 2.14,-1.12 4.42,-2.07 6.79,-2.9 -1.73,-2.21 -2.68,-4.89 -2.94,-7.78 -0.03,-0.36 -0.05,-0.73 -0.06,-1.1 -0.9,0.59 -1.84,1.15 -2.82,1.66 -2.11,1.11 -4.38,1.9 -6.77,2.11 -5.21,0.47 -9.99,-0.83 -13.92,-3.98 -0.44,2.03 -1.19,4 -2.06,5.87 -0.86,1.84 -1.77,3.73 -2.82,5.47 -0.07,0.11 -0.14,0.22 -0.21,0.34 1.85,0.83 3.41,2.25 4.46,4.21 0.74,1.29 1.15,2.72 1.28,4.21 0.14,1.52 -0.07,3.05 -0.44,4.52l-0.07 0.28 -0.1 0.28c-1.12,3.22 -3.59,5.66 -6.31,7.59 -3.21,2.27 -6.85,4.04 -10.81,4.4 -4.83,0.43 -9.25,-1.25 -12.08,-5.27l-0.06 -0.08 -0.06 -0.08c-0.98,-1.49 -1.56,-3.19 -1.72,-4.97 -0.44,-4.97 1.98,-9.67 4.84,-13.56 1.55,-2.11 3.32,-4.16 5.03,-6.15 1.65,-1.92 3.31,-3.98 4.64,-6.13 1.04,-1.68 1.77,-3.58 2.29,-5.47l0.05 -0.19 0.06 -0.18c0.11,-0.34 0.25,-0.66 0.4,-0.96 -0.91,-1.21 -1.5,-2.61 -1.64,-4.18 -0.07,-0.83 -0.05,-1.66 0.03,-2.49 0.22,-2.19 1.29,-4.06 2.8,-5.61 1.38,-1.41 3.09,-2.38 4.98,-2.79 0.33,-2.24 0.93,-4.45 1.75,-6.6 1.58,-4.14 3.76,-7.98 6.48,-11.47 2.6,-3.35 5.56,-6.39 8.9,-9.01 3.14,-2.46 6.53,-4.58 10.1,-6.35 3.67,-1.82 7.62,-3.19 11.72,-3.56 3.45,-0.31 6.94,-0.11 10.28,0.87l0.17 0.05 0.16 0.06c3.51,1.23 6.6,3.28 8.68,6.42 1.73,2.6 2.77,5.5 3.04,8.61 0.63,7.06 -1.59,14.14 -4.6,20.44 -2.26,4.74 -5.18,11.16 -6.72,16.92 1.18,-1.56 2.2,-3.38 2.98,-4.92 3.11,-6.12 5.49,-12.58 6.91,-19.3 0.36,-2.46 1.69,-4.59 3.71,-6.06 1.43,-1.04 2.96,-1.82 4.76,-1.98 4.92,-0.44 8.25,3.33 8.67,7.97 0.04,0.45 0.06,0.93 0.07,1.42 1.15,-0.65 2.37,-1.19 3.65,-1.64 1.28,-0.46 2.6,-0.77 3.96,-0.89 3.77,-0.34 7.32,0.75 10.22,3.18l0.12 0.1 0.12 0.11c0.07,0.06 0.13,0.12 0.19,0.18l10.22 -3.55c1.08,-2.11 3.1,-3.57 5.48,-3.89 0.73,-1.89 1.52,-3.77 2.37,-5.59 1.23,-2.61 2.82,-5.38 5.03,-7.27 1.78,-1.52 3.73,-2.81 6.13,-3.02 1.23,-0.11 2.43,-0.07 3.62,0.29l0.21 0.06 0.21 0.08c3.71,1.38 5.78,4.7 6.13,8.56 0.2,2.23 -0.16,4.49 -0.78,6.64 0.75,-0.21 1.52,-0.36 2.31,-0.43 2.24,-0.2 4.47,0.28 6.45,1.35l0.3 0.16 0.28 0.19c0.01,0 0.01,0.01 0.02,0.01 1.31,-0.81 2.82,-1.28 4.41,-1.42 0.73,-0.07 1.49,-0.02 2.22,0.05l4.75 -1.65 1.01 2.03c1.27,-0.56 2.59,-0.97 3.92,-1.09 1.1,-0.1 2.21,0.01 3.27,0.32l2.47 0.74c0.03,-0.03 0.06,-0.05 0.1,-0.08 -0.01,-1.27 0.31,-2.54 0.92,-3.67 0.73,-1.33 2.01,-2.43 3.13,-3.44 1.22,-1.1 2.47,-2.18 3.73,-3.23 0.86,-0.72 1.74,-1.45 2.57,-2.2 1.59,-1.43 3.51,-2.36 5.65,-2.55 1.54,-0.14 3.09,0.04 4.55,0.58 2.82,1.05 4.86,3.43 5.13,6.48 0.01,0.07 0.01,0.14 0.02,0.21 0.63,0.12 1.26,0.3 1.87,0.53 3.8,1.43 6.1,5.35 4.76,9.34 -0.29,0.86 -0.7,1.61 -1.22,2.26 4.08,-0.54 7.78,2.29 8.16,6.5 0.12,1.29 -0.18,2.51 -0.62,3.71 -0.12,0.34 -0.24,0.68 -0.35,1.02 -0.25,0.77 -0.54,1.54 -0.84,2.29 -0.32,0.82 -0.66,1.63 -1.03,2.42 -0.32,0.68 -0.66,1.35 -1,2.02 -0.56,1.09 -1.22,2.14 -2.03,3.06l-1.17 1.47 -0.05 0.06c-1.37,1.64 -3.09,2.9 -5.06,3.71 -1.98,0.84 -4.06,1.25 -6.16,1.21 -1.02,0.38 -2.07,0.64 -3.17,0.73 -2.32,0.21 -4.53,-0.07 -6.48,-0.84 -1.95,1.1 -4.12,1.79 -6.5,2 -2.72,0.24 -5.35,-0.29 -7.68,-1.59 -1.87,1.57 -4.08,2.64 -6.65,2.87 -3.34,0.3 -6.46,-0.75 -8.8,-3.05 -0.89,1.52 -2.18,2.75 -3.83,3.47 -0.36,0.16 -0.73,0.29 -1.11,0.4zm-17.75 7.44l2.6 -6.63c-0.94,-0.28 -1.85,-0.68 -2.72,-1.18 -1.92,1.52 -4.19,2.56 -6.86,2.8 -1.43,0.13 -2.83,-0 -4.15,-0.38 -0.19,2.23 -0.79,4.44 -1.55,6.52 -0,0 -0,0 -0,0l12.67 -1.13zm-19.49 -17.65c-0.04,-3.85 0.86,-8.42 1.95,-12.65 -0.66,-0.64 -1.2,-1.42 -1.58,-2.31l-3.83 4.58c1.12,1.13 1.89,2.67 2.05,4.48 0.11,1.18 -0.06,2.37 -0.43,3.5l-0.06 0.17 -0.07 0.17c-0.26,0.67 -0.54,1.39 -0.85,2.13 0.19,-0.03 0.38,-0.06 0.58,-0.07 0.75,-0.07 1.5,-0.08 2.23,-0.01zm-15.98 15.23c-0.24,0.04 -0.48,0.07 -0.73,0.09 -0.29,0.03 -0.58,0.04 -0.87,0.04 -0.26,0.83 -0.6,1.65 -0.99,2.44 -0.12,0.24 -0.25,0.48 -0.38,0.71 0.49,-0.15 1,-0.25 1.53,-0.3l0.26 -0.02c0.38,-0.99 0.77,-1.98 1.17,-2.97zm-47.73 -37.05c0.64,-1.65 1.2,-3.33 1.66,-5.04 0.6,-2.21 1.24,-5.09 1.03,-7.39 -0.01,-0.09 -0.02,-0.21 -0.04,-0.33 -0.69,-0.23 -1.47,-0.23 -2.16,-0.17 -0.6,0.05 -1.23,0.21 -1.81,0.37 -6.35,1.81 -11.47,5.6 -15.68,10.54 0.7,-0.43 1.46,-0.79 2.26,-1.07 1.48,-0.52 3.02,-0.87 4.59,-1.01 4.07,-0.36 7.73,1.07 10.15,4.1zm-20.6 2.88c-1.01,1.65 -1.85,3.4 -2.42,5.22 -0.68,2.21 -1.35,5.04 -1.15,7.38 0.03,0.36 0.1,0.76 0.24,1.1l0.05 0.13 0.05 0.13c0.32,0.86 0.75,1.73 1.64,2.07 0.44,0.14 0.88,0.19 1.35,0.15 3.08,-0.28 4.97,-3.04 6.26,-5.58 0.29,-0.57 0.67,-1.39 0.97,-2.24 -3.14,-0.03 -5.98,-1.77 -6.88,-5.22l-0.03 -0.13 -0.03 -0.13c-0.22,-1.03 -0.23,-1.99 -0.07,-2.87z"/>
 </g>
</svg>
