<?xml version="1.0" encoding="UTF-8"?>
<!DOCTYPE svg PUBLIC "-//W3C//DTD SVG 1.1//EN" "http://www.w3.org/Graphics/SVG/1.1/DTD/svg11.dtd">
<!-- Creator: CorelDRAW 2019 (64-Bit) -->
<svg xmlns="http://www.w3.org/2000/svg" xml:space="preserve" width="106.151mm" height="45.8444mm" version="1.1" style="shape-rendering:geometricPrecision; text-rendering:geometricPrecision; image-rendering:optimizeQuality; fill-rule:evenodd; clip-rule:evenodd"
viewBox="0 0 272.35 117.62"
 xmlns:xlink="http://www.w3.org/1999/xlink">
 <defs>
  <style type="text/css">
   <![CDATA[
    .fil0 {fill:#FF8672}
   ]]>
  </style>
 </defs>
 <g id="Capa_x0020_1">
  <metadata id="CorelCorpID_0Corel-Layer"/>
  <path class="fil0" d="M36.01 66.4c-0.35,0.96 -0.75,1.9 -1.18,2.82 -0.6,1.29 -1.21,2.57 -1.88,3.82 1.33,1.06 2.43,2.38 3.23,3.88 0.95,1.66 1.49,3.51 1.66,5.41 0.17,1.87 -0.06,3.72 -0.52,5.53l-0.1 0.41 -0.14 0.4c-1.34,3.85 -4.18,6.78 -7.45,9.09 -3.68,2.61 -7.84,4.58 -12.38,4.99 -5.91,0.53 -11.36,-1.63 -14.83,-6.54l-0.08 -0.12 -0.08 -0.12c-1.26,-1.9 -1.99,-4.07 -2.19,-6.34 -0.52,-5.78 2.13,-11.18 5.46,-15.72 1.64,-2.24 3.46,-4.34 5.27,-6.44 1.6,-1.87 3.19,-3.82 4.48,-5.92 0.92,-1.49 1.56,-3.19 2.03,-4.88l0.07 -0.27 0.02 -0.06c-0.74,-1.32 -1.2,-2.77 -1.34,-4.31 -0.09,-1.02 -0.07,-2.04 0.03,-3.06 0.28,-2.86 1.64,-5.34 3.62,-7.38 1.32,-1.36 2.9,-2.41 4.64,-3.07 0.39,-1.9 0.94,-3.77 1.63,-5.58 1.7,-4.47 4.08,-8.64 7.01,-12.42 2.79,-3.6 5.98,-6.87 9.57,-9.68 3.35,-2.62 6.97,-4.89 10.78,-6.78 4.06,-2.01 8.41,-3.5 12.94,-3.91 3.87,-0.35 7.77,-0.11 11.51,0.99l0.24 0.07 0.23 0.08c4.16,1.45 7.79,3.93 10.25,7.63 2.01,3.03 3.23,6.44 3.56,10.07 0.12,1.31 0.15,2.62 0.1,3.93 1.27,-0.65 2.62,-1.09 4.1,-1.22 2.69,-0.24 5.31,0.46 7.44,2.13 1.98,1.55 3.31,3.74 3.97,6.14 0.19,-0.07 0.38,-0.14 0.57,-0.21 1.52,-0.53 3.1,-0.91 4.7,-1.05 4.24,-0.38 8.31,0.75 11.69,3.28l8.02 -2.79c1.3,-1.94 3.21,-3.38 5.43,-4.06 0.61,-1.52 1.26,-3.03 1.96,-4.52 1.44,-3.05 3.25,-6.13 5.84,-8.34 2.28,-1.95 4.75,-3.46 7.8,-3.74 1.61,-0.14 3.18,-0.06 4.73,0.4l0.31 0.09 0.3 0.11c4.79,1.78 7.59,6.08 8.04,11.07 0.11,1.27 0.08,2.54 -0.07,3.8 2.12,0.02 4.22,0.51 6.13,1.43 1.33,-0.58 2.75,-0.94 4.21,-1.07 0.72,-0.06 1.44,-0.05 2.15,0l6.6 -2.3 1.02 2.05c0.78,-0.21 1.57,-0.37 2.38,-0.44 1.34,-0.12 2.71,-0.01 4.01,0.33 0.19,-0.57 0.43,-1.12 0.72,-1.65 0.94,-1.72 2.34,-2.95 3.76,-4.24 1.27,-1.15 2.57,-2.28 3.89,-3.38 0.86,-0.72 1.72,-1.43 2.55,-2.18 2.06,-1.86 4.58,-3.05 7.36,-3.3 1.98,-0.18 3.97,0.06 5.84,0.75 3.32,1.23 5.83,3.86 6.72,7.21 0.15,0.05 0.31,0.11 0.46,0.16 4.99,1.88 7.99,6.92 6.76,12.08 3.74,1.19 6.58,4.5 6.95,8.73 0.15,1.72 -0.2,3.38 -0.79,4.98 -0.11,0.31 -0.22,0.62 -0.32,0.93 -0.01,0.02 -0.01,0.04 -0.02,0.07 0.99,-0.93 2.05,-1.77 3.16,-2.56 4.02,-2.85 8.56,-5.03 13.52,-5.47 6.27,-0.56 12.05,1.69 15.73,6.91l0.08 0.12 0.08 0.12c1.31,1.99 2.08,4.25 2.29,6.63 0.56,6.27 -2.39,12.17 -6,17.08 -1.86,2.54 -3.93,4.93 -5.98,7.31 -1.89,2.2 -3.75,4.51 -5.28,6.98 -1.13,1.83 -1.92,3.91 -2.49,5.97l-0.07 0.27 -0.09 0.26c-0.04,0.13 -0.09,0.26 -0.14,0.38 0.93,1.48 1.52,3.14 1.68,4.93 0.1,1.08 0.07,2.17 -0.04,3.25 -0.29,2.96 -1.71,5.51 -3.76,7.61 -2.24,2.3 -5.14,3.72 -8.34,4 -3.58,0.32 -7.07,-0.8 -9.65,-3.33 -0.07,-0.07 -0.14,-0.14 -0.21,-0.21 -0.09,0.07 -0.18,0.13 -0.27,0.2 -2.47,1.8 -5.27,3.01 -8.32,3.29 -1.65,0.15 -3.32,0.08 -4.95,-0.24 -2.02,1.01 -4.18,1.68 -6.46,1.88 -2.57,0.23 -5.15,-0.07 -7.5,-1.06 -2.18,1.5 -4.65,2.46 -7.35,2.7 -3.74,0.34 -7.29,-0.62 -10.16,-2.75 -1.1,1.32 -2.49,2.39 -4.11,3.1 -1.53,0.67 -3.16,0.97 -4.8,1.19 -0.01,0 -0.02,0 -0.03,0l-0.29 0.04 -13.5 -1 -0.56 -0.33c-0.71,-0.42 -1.37,-0.91 -1.99,-1.45 -2.71,2.66 -6.02,4.53 -9.97,4.88 -2.46,0.22 -4.93,-0.15 -7.16,-1.16 -2.07,1.34 -4.36,2.19 -6.88,2.41 -2.42,0.22 -4.87,-0.05 -7.12,-0.91 -2.16,1.31 -4.53,2.11 -7.09,2.34 -4.35,0.39 -8.46,-1.04 -11.61,-4.07 -2.9,-2.78 -4.5,-6.43 -4.85,-10.4 -0.46,-5.18 0.7,-11.22 2.01,-16.44 -0.75,-0.9 -1.34,-1.92 -1.75,-3.02 -0.23,-0.61 -0.4,-1.24 -0.51,-1.88 -3.77,1.28 -8.6,1.94 -12.4,2.36 -1.92,2.67 -4.13,5.1 -6.57,7.3 -3.65,3.28 -7.71,6.05 -12.13,8.19 -3.87,1.88 -8.11,3.44 -12.42,3.83 -3.18,0.28 -6.43,0.22 -9.55,-0.52 -6.69,-1.58 -12.2,-5.93 -12.85,-13.15 -0.25,-2.77 0.28,-5.47 1.54,-7.95 2.28,-4.46 6.64,-7.67 11,-9.94 1.35,-0.7 2.73,-1.34 4.13,-1.92 -0.49,-1.04 -0.88,-2.13 -1.16,-3.26 -2.32,1.15 -4.79,1.94 -7.38,2.17 -4.56,0.41 -8.97,-0.38 -12.89,-2.48z"/>
 </g>
</svg>
