<?xml version="1.0" encoding="UTF-8"?>
<!DOCTYPE svg PUBLIC "-//W3C//DTD SVG 1.1//EN" "http://www.w3.org/Graphics/SVG/1.1/DTD/svg11.dtd">
<!-- Creator: CorelDRAW 2019 (64-Bit) -->
<svg xmlns="http://www.w3.org/2000/svg" xml:space="preserve" width="106.151mm" height="45.8444mm" version="1.1" style="shape-rendering:geometricPrecision; text-rendering:geometricPrecision; image-rendering:optimizeQuality; fill-rule:evenodd; clip-rule:evenodd"
viewBox="0 0 272.35 117.62"
 xmlns:xlink="http://www.w3.org/1999/xlink">
 <defs>
  <style type="text/css">
   <![CDATA[
    .fil1 {fill:black}
    .fil0 {fill:#FF8672}
    .fil2 {fill:white;fill-rule:nonzero}
   ]]>
  </style>
 </defs>
 <g id="Capa_x0020_1">
  <metadata id="CorelCorpID_0Corel-Layer"/>
  <path class="fil0" d="M36.01 66.4c-0.35,0.96 -0.75,1.9 -1.18,2.82 -0.6,1.29 -1.21,2.57 -1.88,3.82 1.33,1.06 2.43,2.38 3.23,3.88 0.95,1.66 1.49,3.51 1.66,5.41 0.17,1.87 -0.06,3.72 -0.52,5.53l-0.1 0.41 -0.14 0.4c-1.34,3.85 -4.18,6.78 -7.45,9.09 -3.68,2.61 -7.84,4.58 -12.38,4.99 -5.91,0.53 -11.36,-1.63 -14.83,-6.54l-0.08 -0.12 -0.08 -0.12c-1.26,-1.9 -1.99,-4.07 -2.19,-6.34 -0.52,-5.78 2.13,-11.18 5.46,-15.72 1.64,-2.24 3.46,-4.34 5.27,-6.44 1.6,-1.87 3.19,-3.82 4.48,-5.92 0.92,-1.49 1.56,-3.19 2.03,-4.88l0.07 -0.27 0.02 -0.06c-0.74,-1.32 -1.2,-2.77 -1.34,-4.31 -0.09,-1.02 -0.07,-2.04 0.03,-3.06 0.28,-2.86 1.64,-5.34 3.62,-7.38 1.32,-1.36 2.9,-2.41 4.64,-3.07 0.39,-1.9 0.94,-3.77 1.63,-5.58 1.7,-4.47 4.08,-8.64 7.01,-12.42 2.79,-3.6 5.98,-6.87 9.57,-9.68 3.35,-2.62 6.97,-4.89 10.78,-6.78 4.06,-2.01 8.41,-3.5 12.94,-3.91 3.87,-0.35 7.77,-0.11 11.51,0.99l0.24 0.07 0.23 0.08c4.16,1.45 7.79,3.93 10.25,7.63 2.01,3.03 3.23,6.44 3.56,10.07 0.12,1.31 0.15,2.62 0.1,3.93 1.27,-0.65 2.62,-1.09 4.1,-1.22 2.69,-0.24 5.31,0.46 7.44,2.13 1.98,1.55 3.31,3.74 3.97,6.14 0.19,-0.07 0.38,-0.14 0.57,-0.21 1.52,-0.53 3.1,-0.91 4.7,-1.05 4.24,-0.38 8.31,0.75 11.69,3.28l8.02 -2.79c1.3,-1.94 3.21,-3.38 5.43,-4.06 0.61,-1.52 1.26,-3.03 1.96,-4.52 1.44,-3.05 3.25,-6.13 5.84,-8.34 2.28,-1.95 4.75,-3.46 7.8,-3.74 1.61,-0.14 3.18,-0.06 4.73,0.4l0.31 0.09 0.3 0.11c4.79,1.78 7.59,6.08 8.04,11.07 0.11,1.27 0.08,2.54 -0.07,3.8 2.12,0.02 4.22,0.51 6.13,1.43 1.33,-0.58 2.75,-0.94 4.21,-1.07 0.72,-0.06 1.44,-0.05 2.15,0l6.6 -2.3 1.02 2.05c0.78,-0.21 1.57,-0.37 2.38,-0.44 1.34,-0.12 2.71,-0.01 4.01,0.33 0.19,-0.57 0.43,-1.12 0.72,-1.65 0.94,-1.72 2.34,-2.95 3.76,-4.24 1.27,-1.15 2.57,-2.28 3.89,-3.38 0.86,-0.72 1.72,-1.43 2.55,-2.18 2.06,-1.86 4.58,-3.05 7.36,-3.3 1.98,-0.18 3.97,0.06 5.84,0.75 3.32,1.23 5.83,3.86 6.72,7.21 0.15,0.05 0.31,0.11 0.46,0.16 4.99,1.88 7.99,6.92 6.76,12.08 3.74,1.19 6.58,4.5 6.95,8.73 0.15,1.72 -0.2,3.38 -0.79,4.98 -0.11,0.31 -0.22,0.62 -0.32,0.93 -0.01,0.02 -0.01,0.04 -0.02,0.07 0.99,-0.93 2.05,-1.77 3.16,-2.56 4.02,-2.85 8.56,-5.03 13.52,-5.47 6.27,-0.56 12.05,1.69 15.73,6.91l0.08 0.12 0.08 0.12c1.31,1.99 2.08,4.25 2.29,6.63 0.56,6.27 -2.39,12.17 -6,17.08 -1.86,2.54 -3.93,4.93 -5.98,7.31 -1.89,2.2 -3.75,4.51 -5.28,6.98 -1.13,1.83 -1.92,3.91 -2.49,5.97l-0.07 0.27 -0.09 0.26c-0.04,0.13 -0.09,0.26 -0.14,0.38 0.93,1.48 1.52,3.14 1.68,4.93 0.1,1.08 0.07,2.17 -0.04,3.25 -0.29,2.96 -1.71,5.51 -3.76,7.61 -2.24,2.3 -5.14,3.72 -8.34,4 -3.58,0.32 -7.07,-0.8 -9.65,-3.33 -0.07,-0.07 -0.14,-0.14 -0.21,-0.21 -0.09,0.07 -0.18,0.13 -0.27,0.2 -2.47,1.8 -5.27,3.01 -8.32,3.29 -1.65,0.15 -3.32,0.08 -4.95,-0.24 -2.02,1.01 -4.18,1.68 -6.46,1.88 -2.57,0.23 -5.15,-0.07 -7.5,-1.06 -2.18,1.5 -4.65,2.46 -7.35,2.7 -3.74,0.34 -7.29,-0.62 -10.16,-2.75 -1.1,1.32 -2.49,2.39 -4.11,3.1 -1.53,0.67 -3.16,0.97 -4.8,1.19 -0.01,0 -0.02,0 -0.03,0l-0.29 0.04 -13.5 -1 -0.56 -0.33c-0.71,-0.42 -1.37,-0.91 -1.99,-1.45 -2.71,2.66 -6.02,4.53 -9.97,4.88 -2.46,0.22 -4.93,-0.15 -7.16,-1.16 -2.07,1.34 -4.36,2.19 -6.88,2.41 -2.42,0.22 -4.87,-0.05 -7.12,-0.91 -2.16,1.31 -4.53,2.11 -7.09,2.34 -4.35,0.39 -8.46,-1.04 -11.61,-4.07 -2.9,-2.78 -4.5,-6.43 -4.85,-10.4 -0.46,-5.18 0.7,-11.22 2.01,-16.44 -0.75,-0.9 -1.34,-1.92 -1.75,-3.02 -0.23,-0.61 -0.4,-1.24 -0.51,-1.88 -3.77,1.28 -8.6,1.94 -12.4,2.36 -1.92,2.67 -4.13,5.1 -6.57,7.3 -3.65,3.28 -7.71,6.05 -12.13,8.19 -3.87,1.88 -8.11,3.44 -12.42,3.83 -3.18,0.28 -6.43,0.22 -9.55,-0.52 -6.69,-1.58 -12.2,-5.93 -12.85,-13.15 -0.25,-2.77 0.28,-5.47 1.54,-7.95 2.28,-4.46 6.64,-7.67 11,-9.94 1.35,-0.7 2.73,-1.34 4.13,-1.92 -0.49,-1.04 -0.88,-2.13 -1.16,-3.26 -2.32,1.15 -4.79,1.94 -7.38,2.17 -4.56,0.41 -8.97,-0.38 -12.89,-2.48z"/>
  <path class="fil1" d="M171.97 63.92c1.41,1.04 2.56,2.49 3.35,4.21l0.03 0.07 0.03 0.07c0.18,0.42 0.34,0.85 0.46,1.28l0.3 1.27c0.03,0.16 0.05,0.31 0.08,0.47l2.8 -0.53 1.41 1.76c1.79,-2.02 4.24,-3.13 6.93,-3.37 0.86,-0.08 1.77,-0 2.64,0.07l4.93 -1.71 1.22 2.47c1.66,-0.83 3.41,-1.46 5.16,-1.62 1.16,-0.1 2.34,0.01 3.45,0.34l3.85 1.16c2.81,-2.45 6.12,-4.25 9.94,-4.59 7.31,-0.65 11.9,3.83 13.32,10.28 1.81,-0.21 3.54,0.2 4.96,1.09 0.23,-0.55 0.47,-1.09 0.72,-1.63 0.99,-2.13 2.04,-4.3 3.26,-6.31 0.29,-0.48 0.59,-0.96 0.89,-1.44 -2.46,-0.77 -4.54,-2.44 -5.86,-4.92 -0.8,-1.39 -1.24,-2.93 -1.38,-4.53 -0.15,-1.67 0.08,-3.34 0.49,-4.96l0.07 -0.29 0.1 -0.28c1.24,-3.56 4.02,-6.27 7.03,-8.41 3.61,-2.56 7.72,-4.58 12.18,-4.97 5.3,-0.47 10.13,1.34 13.24,5.75l0.06 0.09 0.06 0.09c1.06,1.61 1.67,3.44 1.85,5.36 0.5,5.56 -2.29,10.87 -5.48,15.21 -1.8,2.45 -3.87,4.84 -5.85,7.15 -1.97,2.29 -3.94,4.75 -5.53,7.33 -1.27,2.05 -2.16,4.37 -2.81,6.68l-0.05 0.19 -0.06 0.19c-0.19,0.56 -0.43,1.08 -0.73,1.56 1.18,1.39 1.96,3.02 2.13,4.88 0.08,0.91 0.06,1.82 -0.03,2.73 -0.23,2.33 -1.39,4.31 -3,5.96 -1.78,1.83 -4.07,2.96 -6.61,3.18 -2.78,0.25 -5.48,-0.6 -7.49,-2.55 -0.71,-0.69 -1.32,-1.46 -1.79,-2.29 -0.67,0.74 -1.41,1.43 -2.22,2.02 -2.06,1.5 -4.39,2.54 -6.95,2.77 -1.75,0.16 -3.47,0.03 -5.08,-0.41 -1.94,1.1 -4.04,1.85 -6.32,2.05 -2.98,0.27 -5.51,-0.32 -7.56,-1.55 -2.05,1.74 -4.47,2.94 -7.29,3.19 -4,0.36 -7.69,-1.05 -10.28,-4.13 -0.07,-0.08 -0.14,-0.16 -0.2,-0.24 -0.02,0.04 -0.04,0.09 -0.05,0.13l-0.09 0.23 -0.11 0.22c-0.93,1.93 -2.41,3.49 -4.39,4.36 -1.27,0.55 -2.71,0.8 -4.07,0.98 -0.01,0 -0.03,0 -0.04,0.01l-12.55 -0.93c-1.33,-0.79 -2.49,-1.89 -3.43,-3.2 -2.54,3.29 -5.9,5.87 -10.18,6.25 -2.64,0.24 -5.09,-0.35 -7.12,-1.66 -1.98,1.58 -4.26,2.67 -6.91,2.91 -2.62,0.23 -5.08,-0.21 -7.14,-1.31 -2.01,1.49 -4.35,2.49 -7.08,2.74 -3.56,0.32 -6.89,-0.83 -9.46,-3.31 -2.41,-2.32 -3.72,-5.35 -4.02,-8.67 -0.44,-4.9 0.81,-11.27 2.32,-17.01 -0.97,-0.82 -1.75,-1.89 -2.22,-3.16 -0.65,-1.75 -0.67,-3.64 -0.08,-5.41 -0.53,0.34 -1.09,0.66 -1.65,0.95 -3.52,1.84 -10.23,2.76 -15.31,3.31 -1.95,2.89 -4.26,5.51 -6.87,7.85 -3.46,3.11 -7.3,5.73 -11.49,7.76 -3.55,1.72 -7.51,3.21 -11.47,3.56 -2.88,0.26 -5.85,0.21 -8.67,-0.46 -5.51,-1.31 -10.2,-4.71 -10.74,-10.72 -0.65,-7.3 5.24,-12.16 11.07,-15.2 2.18,-1.14 4.51,-2.12 6.93,-2.96 -1.77,-2.25 -2.73,-4.99 -3,-7.95 -0.03,-0.37 -0.05,-0.75 -0.06,-1.13 -0.92,0.61 -1.88,1.17 -2.88,1.7 -2.15,1.13 -4.48,1.94 -6.91,2.16 -5.32,0.48 -10.2,-0.84 -14.22,-4.07 -0.45,2.07 -1.22,4.09 -2.1,5.99 -0.87,1.88 -1.81,3.8 -2.88,5.58 -0.07,0.11 -0.14,0.23 -0.21,0.34 1.89,0.85 3.48,2.3 4.55,4.3 0.75,1.32 1.17,2.78 1.31,4.3 0.14,1.55 -0.07,3.11 -0.45,4.62l-0.07 0.29 -0.1 0.28c-1.14,3.28 -3.67,5.78 -6.44,7.75 -3.27,2.32 -6.99,4.13 -11.04,4.49 -4.93,0.44 -9.44,-1.28 -12.33,-5.38l-0.06 -0.08 -0.06 -0.09c-1.01,-1.52 -1.59,-3.26 -1.75,-5.07 -0.45,-5.08 2.02,-9.87 4.94,-13.85 1.58,-2.15 3.39,-4.25 5.13,-6.28 1.68,-1.96 3.38,-4.07 4.74,-6.26 1.06,-1.71 1.8,-3.65 2.34,-5.59l0.05 -0.19 0.06 -0.19c0.12,-0.34 0.25,-0.67 0.41,-0.98 -0.93,-1.24 -1.53,-2.67 -1.68,-4.26 -0.08,-0.85 -0.05,-1.7 0.03,-2.54 0.22,-2.23 1.31,-4.14 2.86,-5.73 1.41,-1.44 3.15,-2.43 5.09,-2.85 0.34,-2.29 0.95,-4.55 1.78,-6.74 1.61,-4.22 3.84,-8.15 6.61,-11.72 2.65,-3.42 5.68,-6.53 9.09,-9.2 3.21,-2.51 6.66,-4.67 10.31,-6.49 3.74,-1.86 7.78,-3.26 11.97,-3.63 3.52,-0.32 7.09,-0.11 10.5,0.89l0.17 0.05 0.17 0.06c3.59,1.25 6.74,3.35 8.87,6.55 1.76,2.65 2.82,5.61 3.11,8.79 0.65,7.21 -1.62,14.44 -4.7,20.88 -2.31,4.85 -5.29,11.4 -6.86,17.28 1.21,-1.6 2.25,-3.45 3.05,-5.02 3.17,-6.25 5.61,-12.84 7.06,-19.71 0.37,-2.51 1.72,-4.69 3.79,-6.19 1.46,-1.07 3.02,-1.86 4.86,-2.03 5.02,-0.45 8.42,3.4 8.85,8.14 0.04,0.46 0.06,0.95 0.07,1.45 1.17,-0.66 2.42,-1.22 3.73,-1.67 1.3,-0.47 2.66,-0.79 4.04,-0.91 3.85,-0.34 7.47,0.77 10.44,3.25l0.12 0.1 0.12 0.11c0.07,0.06 0.13,0.12 0.2,0.18l10.44 -3.63c1.11,-2.15 3.16,-3.64 5.6,-3.97 0.75,-1.93 1.55,-3.85 2.42,-5.71 1.25,-2.66 2.88,-5.49 5.14,-7.42 1.81,-1.55 3.81,-2.87 6.26,-3.09 1.25,-0.11 2.48,-0.07 3.7,0.3l0.22 0.07 0.21 0.08c3.79,1.41 5.91,4.8 6.26,8.74 0.2,2.28 -0.16,4.58 -0.8,6.78 0.77,-0.21 1.55,-0.36 2.36,-0.43 2.29,-0.2 4.57,0.28 6.58,1.38l0.31 0.17 0.29 0.2c0.01,0 0.01,0.01 0.02,0.01 1.34,-0.82 2.88,-1.31 4.5,-1.45 0.74,-0.07 1.52,-0.02 2.27,0.05l4.85 -1.69 1.03 2.07c1.3,-0.57 2.64,-0.99 4,-1.12 1.12,-0.1 2.26,0.01 3.34,0.33l2.52 0.76c0.03,-0.03 0.07,-0.06 0.1,-0.08 -0.01,-1.3 0.31,-2.6 0.94,-3.74 0.74,-1.36 2.05,-2.48 3.19,-3.52 1.25,-1.13 2.52,-2.23 3.81,-3.3 0.88,-0.74 1.77,-1.48 2.63,-2.24 1.62,-1.46 3.58,-2.41 5.77,-2.61 1.58,-0.14 3.16,0.04 4.64,0.59 2.88,1.07 4.96,3.5 5.24,6.61 0.01,0.07 0.01,0.15 0.02,0.22 0.65,0.12 1.29,0.3 1.91,0.54 3.88,1.46 6.22,5.46 4.86,9.54 -0.29,0.87 -0.72,1.65 -1.25,2.31 4.17,-0.55 7.95,2.34 8.33,6.63 0.12,1.32 -0.18,2.56 -0.63,3.79 -0.13,0.34 -0.25,0.69 -0.36,1.04 -0.25,0.79 -0.55,1.57 -0.86,2.34 -0.33,0.83 -0.67,1.67 -1.06,2.48 -0.33,0.69 -0.67,1.38 -1.02,2.06 -0.57,1.12 -1.24,2.19 -2.07,3.13l-1.2 1.5 -0.05 0.06c-1.4,1.67 -3.15,2.96 -5.17,3.78 -2.02,0.85 -4.14,1.28 -6.29,1.23 -1.04,0.39 -2.12,0.65 -3.23,0.75 -2.36,0.21 -4.62,-0.07 -6.62,-0.86 -1.99,1.13 -4.21,1.83 -6.64,2.05 -2.78,0.25 -5.46,-0.3 -7.84,-1.62 -1.91,1.6 -4.17,2.7 -6.79,2.93 -3.41,0.31 -6.6,-0.77 -8.98,-3.12 -0.91,1.56 -2.22,2.81 -3.91,3.55 -0.37,0.16 -0.75,0.29 -1.14,0.41zm-18.13 7.59l2.66 -6.77c-0.96,-0.29 -1.89,-0.69 -2.77,-1.2 -1.96,1.56 -4.28,2.62 -7.01,2.86 -1.47,0.13 -2.89,-0 -4.24,-0.39 -0.19,2.28 -0.8,4.54 -1.58,6.66 -0,0 -0,0 -0,0l12.94 -1.16zm-19.91 -18.02c-0.04,-3.94 0.88,-8.6 1.99,-12.91 -0.67,-0.66 -1.22,-1.45 -1.62,-2.36l-3.91 4.67c1.15,1.16 1.93,2.73 2.09,4.58 0.11,1.21 -0.07,2.42 -0.44,3.57l-0.06 0.18 -0.07 0.17c-0.27,0.69 -0.55,1.42 -0.86,2.18 0.19,-0.03 0.39,-0.06 0.59,-0.07 0.77,-0.07 1.53,-0.08 2.28,-0.01zm-16.32 15.55c-0.25,0.04 -0.49,0.07 -0.75,0.1 -0.3,0.03 -0.59,0.04 -0.88,0.04 -0.26,0.85 -0.61,1.68 -1.01,2.49 -0.12,0.25 -0.25,0.49 -0.39,0.73 0.5,-0.16 1.02,-0.26 1.56,-0.31l0.27 -0.02c0.39,-1.01 0.79,-2.03 1.2,-3.03zm-48.74 -37.84c0.66,-1.68 1.22,-3.4 1.7,-5.15 0.61,-2.25 1.26,-5.2 1.05,-7.55 -0.01,-0.09 -0.02,-0.22 -0.04,-0.34 -0.7,-0.23 -1.5,-0.24 -2.21,-0.18 -0.61,0.06 -1.26,0.21 -1.85,0.38 -6.49,1.85 -11.71,5.72 -16.01,10.77 0.71,-0.44 1.49,-0.81 2.31,-1.09 1.52,-0.53 3.09,-0.89 4.69,-1.03 4.16,-0.37 7.89,1.09 10.36,4.19zm-21.04 2.94c-1.03,1.68 -1.89,3.47 -2.47,5.33 -0.7,2.26 -1.38,5.15 -1.17,7.53 0.03,0.37 0.1,0.78 0.25,1.12l0.05 0.13 0.05 0.13c0.33,0.88 0.76,1.76 1.68,2.12 0.45,0.14 0.9,0.2 1.38,0.15 3.14,-0.28 5.07,-3.11 6.39,-5.7 0.29,-0.58 0.69,-1.42 1,-2.29 -3.21,-0.04 -6.11,-1.81 -7.02,-5.33l-0.03 -0.13 -0.03 -0.13c-0.23,-1.05 -0.24,-2.03 -0.07,-2.93z"/>
  <g id="_1933730642224">
   <path class="fil2" d="M16.25 81.03c-1.42,2.2 -2.06,4.12 -1.91,5.77 0.12,1.34 0.97,2.3 2.55,2.88 0.69,0.21 1.33,0.29 1.91,0.23 0.58,-0.05 1.25,-0.15 2,-0.28 0.75,-0.13 1.68,-0.54 2.79,-1.23 1.11,-0.68 1.98,-1.47 2.62,-2.36 0.64,-0.89 0.93,-1.67 0.87,-2.34 -0.01,-0.13 -0.02,-0.25 -0.03,-0.33 -0.15,0.87 -0.86,1.74 -2.13,2.62 -0.73,0.42 -1.34,0.66 -1.83,0.7 -0.49,0.04 -0.9,-0.01 -1.23,-0.16 -0.79,-0.33 -1.24,-1.06 -1.34,-2.17 -0.1,-1.12 0.31,-2.1 1.22,-2.94 0.91,-0.85 1.86,-1.31 2.84,-1.4 1.52,-0.14 2.58,0.4 3.18,1.6 0.26,0.43 0.42,0.95 0.48,1.58 0.06,0.62 -0.03,1.4 -0.27,2.32 -0.5,1.44 -1.81,2.91 -3.92,4.4 -2.75,1.96 -5.31,3.04 -7.67,3.25 -2.72,0.24 -4.75,-0.59 -6.09,-2.49 -0.36,-0.55 -0.58,-1.19 -0.64,-1.9 -0.22,-2.5 0.99,-5.55 3.63,-9.16 0.92,-1.25 2.52,-3.21 4.81,-5.86 2.28,-2.66 4.07,-5.03 5.37,-7.13 1.3,-2.1 2.34,-4.55 3.12,-7.36 0.14,-0.42 0.41,-0.58 0.8,-0.48 0.39,0.1 0.56,0.38 0.51,0.83 -0.22,1.59 -0.82,3.45 -1.8,5.56 -0.98,2.11 -1.82,3.75 -2.53,4.92 -0.71,1.17 -2.03,3.17 -3.98,6.02 -1.95,2.85 -3.06,4.49 -3.34,4.92zm10.36 -32.71c0.58,-0.59 1.24,-0.92 2,-0.99 0.76,-0.07 1.36,0.11 1.8,0.55 0.44,0.43 0.68,0.83 0.71,1.18 0.11,1.21 -0.17,2.13 -0.83,2.77 -0.66,0.64 -1.37,1 -2.13,1.07 -0.76,0.07 -1.36,-0.11 -1.8,-0.55 -0.44,-0.43 -0.68,-0.83 -0.71,-1.18 -0.03,-0.36 -0.02,-0.77 0.02,-1.25 0.05,-0.48 0.36,-1.01 0.94,-1.6zm70.54 -17.04c0.8,-0.07 1.26,0.56 1.38,1.9 0.12,1.34 -0.09,3.94 -0.62,7.81 -0.53,3.87 -1.59,9.14 -3.17,15.8 -1.58,6.66 -3.33,12.13 -5.25,16.39 0.67,-0.1 1.85,-0.26 3.57,-0.45 1.71,-0.2 3.12,-0.37 4.2,-0.51 1.09,-0.14 2.39,-0.41 3.91,-0.79 1.52,-0.38 2.75,-0.84 3.69,-1.38 2.27,-1.33 3.5,-3.1 3.71,-5.33 -0.14,-0.57 -0.14,-0.9 0.01,-0.98 0.15,-0.08 0.28,-0.01 0.39,0.2 0.36,0.55 0.58,1.16 0.64,1.83 0.06,0.67 -0.21,1.63 -0.82,2.87 -0.61,1.25 -1.92,2.4 -3.94,3.46 -2.02,1.06 -7.42,2.03 -16.2,2.9 -1.85,3.4 -4.31,6.48 -7.37,9.23 -3.06,2.75 -6.36,4.98 -9.89,6.69 -3.54,1.71 -6.56,2.68 -9.09,2.9 -2.52,0.23 -4.68,0.13 -6.47,-0.3 -3.45,-0.82 -5.27,-2.36 -5.48,-4.64 -0.26,-2.95 2.2,-5.78 7.4,-8.49 6.66,-3.48 16.17,-5.77 28.53,-6.87 3.41,-11.1 5.7,-20.01 6.85,-26.73 -3.28,9.11 -7.26,15.58 -11.96,19.42 -2.47,2.02 -4.94,3.14 -7.39,3.36 -2.45,0.22 -4.42,-0.28 -5.9,-1.5 -1.48,-1.22 -2.33,-2.99 -2.53,-5.31 -0.44,-4.86 2.17,-12.97 7.81,-24.31 1.75,-3.53 3.1,-7.07 4.04,-10.62 1.09,-3.92 1.51,-7.24 1.27,-9.96 -0.24,-2.72 -1.3,-4.58 -3.17,-5.59 -1.87,-1 -4.05,-1.39 -6.55,-1.17 -0.98,0.09 -2.02,0.29 -3.12,0.62 -7.9,2.24 -14.77,7.06 -20.63,14.46 -2.95,3.73 -5.02,7.47 -6.22,11.22 -1.21,4.02 -1.7,7.42 -1.45,10.18 0.1,1.16 0.36,2.22 0.76,3.17 1.18,3.18 3.15,5.25 5.89,6.22 1.39,0.46 2.8,0.63 4.23,0.5 4.95,-0.44 8.92,-3.59 11.91,-9.43 1.68,-3.34 2.41,-6.2 2.2,-8.56 -0.28,-3.08 -1.8,-4.5 -4.56,-4.25 -0.54,0.05 -1.18,0.18 -1.92,0.41 -0.74,0.22 -1.15,0.2 -1.22,-0.06 -0.08,-0.35 0.41,-0.71 1.46,-1.07 1.05,-0.36 2.06,-0.59 3.04,-0.68 2.32,-0.21 3.97,0.63 4.95,2.53 0.43,0.82 0.69,1.71 0.78,2.7 0.18,1.96 -0.31,4.3 -1.46,7.01 -2.28,5.2 -5.95,9.12 -11.02,11.78 -1.55,0.81 -2.99,1.28 -4.33,1.4 -4.33,0.39 -7.86,-0.87 -10.59,-3.77 -2.38,-2.44 -3.72,-5.36 -4.02,-8.75 -0.3,-3.39 0.22,-6.86 1.57,-10.4 1.35,-3.54 3.22,-6.86 5.62,-9.95 2.4,-3.09 5.03,-5.76 7.89,-7.99 2.86,-2.23 5.9,-4.15 9.13,-5.74 3.4,-1.7 6.58,-2.68 9.52,-2.94 2.95,-0.26 5.6,-0.05 7.95,0.64 2.46,0.86 4.26,2.15 5.41,3.87 1.14,1.72 1.81,3.58 1.99,5.59 0.45,5.04 -0.9,10.81 -4.05,17.3 -4.88,10.33 -7.68,18.28 -8.39,23.83 -0.09,0.95 -0.1,1.94 -0,2.97 0.09,1.03 0.51,1.96 1.26,2.79 0.75,0.83 1.77,1.19 3.06,1.08 1.83,-0.16 3.75,-1.12 5.75,-2.88 2.38,-2.01 4.67,-5.16 6.85,-9.45 3.63,-7.16 6.2,-14.39 7.71,-21.67 0.07,-0.73 0.42,-1.32 1.06,-1.78 0.63,-0.46 1.11,-0.71 1.42,-0.73zm-43.12 57.97c0.03,0.36 0.15,0.71 0.36,1.05 1.07,1.43 3.29,2 6.66,1.7 3.37,-0.3 6.53,-1.15 9.49,-2.54 2.96,-1.39 5.79,-3.3 8.5,-5.72 2.71,-2.42 4.86,-5.24 6.46,-8.44 -11.69,1.05 -20.5,3.66 -26.42,7.83 -3.51,2.47 -5.2,4.51 -5.05,6.12zm66.95 -45.8c-0.73,0.87 -1.71,2.8 -2.93,5.76 -1.22,2.97 -1.91,5.16 -2.07,6.6 -0.16,1.43 -0.21,2.58 -0.13,3.45 0.08,0.87 0.45,1.28 1.12,1.22 0.85,-0.08 1.83,-0.95 2.94,-2.62 1.63,-2.44 3.17,-5.57 4.62,-9.39 0.14,-0.42 0.32,-0.66 0.54,-0.72 0.34,-0.17 0.54,-0.05 0.57,0.35 0.02,0.22 -0.02,0.5 -0.13,0.82 -3.36,8.67 -6.45,13.13 -9.26,13.38 -1.29,0.12 -2.4,-0.42 -3.31,-1.59 -0.46,-0.63 -0.74,-1.51 -0.84,-2.62 -0.1,-1.12 0,-2.5 0.3,-4.14 -3.05,6.08 -5.88,9.23 -8.46,9.46 -0.71,0.06 -1.38,-0.1 -2,-0.5 -1.42,-0.82 -2.24,-2.36 -2.44,-4.64 -0.39,-4.37 1.11,-8.98 4.5,-13.83 1.92,-2.69 4.41,-4.56 7.46,-5.59 0.83,-0.3 1.62,-0.48 2.38,-0.55 2.05,-0.18 3.86,0.37 5.41,1.67 0.49,0.45 0.67,0.91 0.53,1.37 -0.14,0.46 -0.5,0.67 -1.09,0.64 -0.63,-1.56 -1.78,-2.27 -3.43,-2.12 -1.92,0.17 -4.15,1.9 -6.69,5.19 -1.45,1.93 -2.75,4.16 -3.92,6.69 -1.48,3.06 -2.14,5.45 -1.99,7.2 0.16,1.74 0.79,2.56 1.91,2.46 2.68,-0.24 5.81,-4.66 9.41,-13.26 0.7,-1.73 1.31,-2.92 1.84,-3.57 0.53,-0.65 1.24,-1.02 2.13,-1.1 0.18,-0.02 0.64,0.01 1.39,0.08 0.75,0.07 1.3,0.04 1.65,-0.08zm19.89 11.11c-0.33,-3.7 0.9,-10.07 3.69,-19.09l-3.48 0.31c-0.22,0.02 -0.38,-0.09 -0.47,-0.33 -0.09,-0.24 -0.09,-0.49 0,-0.74 0.09,-0.26 0.25,-0.39 0.47,-0.41l4.02 -0.36c1.29,-3.67 2.52,-6.75 3.69,-9.24 1.17,-2.49 2.3,-4.2 3.39,-5.13 1.09,-0.93 1.89,-1.42 2.4,-1.46 0.51,-0.05 0.89,-0.03 1.12,0.04 1.07,0.4 1.67,1.37 1.81,2.91 0.14,1.54 -0.21,3.45 -1.04,5.73 -0.83,2.28 -1.65,4.4 -2.47,6.36l3.21 -0.29c0.22,-0.02 0.38,0.09 0.47,0.33 0.09,0.24 0.09,0.49 -0,0.74 -0.09,0.26 -0.25,0.39 -0.47,0.41l-3.88 0.35c-2.08,4.37 -4.72,8.32 -7.91,11.84l-0.93 6.97c-0.08,0.59 -0.1,1.17 -0.05,1.72 0.05,0.56 0.26,1.11 0.62,1.67 0.36,0.55 0.88,0.8 1.55,0.74 0.76,-0.07 1.58,-0.41 2.47,-1.03 2,-1.8 4.06,-5.38 6.19,-10.74 0.14,-0.42 0.33,-0.68 0.57,-0.79 0.24,-0.11 0.39,-0.07 0.45,0.13 0.06,0.2 0.02,0.53 -0.11,0.99 -1.2,3.21 -2.16,5.5 -2.89,6.87 -2.06,4.1 -4.45,6.27 -7.18,6.51 -1.38,0.12 -2.57,-0.29 -3.55,-1.23 -0.98,-0.95 -1.55,-2.2 -1.69,-3.76zm11.66 -21.29c2.47,-5.53 3.62,-9.32 3.44,-11.37 -0.08,-0.89 -0.28,-1.32 -0.59,-1.3 -0.49,0.04 -1.17,0.82 -2.05,2.34 -0.88,1.52 -2.26,5.06 -4.14,10.63l3.35 -0.3zm-0.74 1.55l-3.15 0.28c-0.42,1.3 -1.36,4.37 -2.82,9.23 2.19,-2.71 4.17,-5.88 5.96,-9.51zm6.64 13.17c-0.49,1.57 -0.65,3.3 -0.48,5.17 0.11,1.25 0.48,2.22 1.1,2.9 0.62,0.69 1.45,0.98 2.47,0.89 4.06,-0.36 7.4,-4.51 10.02,-12.43 0.25,-0.74 0.6,-1.09 1.05,-1.04 0.18,0.03 0.28,0.13 0.3,0.31 0.02,0.18 -0.38,1.39 -1.19,3.65 -0.81,2.25 -1.67,4.1 -2.58,5.53 -2,3.33 -4.67,5.14 -8.01,5.44 -1.78,0.16 -3.35,-0.28 -4.71,-1.33 -1.35,-1.05 -2.12,-2.58 -2.3,-4.58 -0.18,-2.01 0.11,-4.18 0.87,-6.52 0.76,-2.34 1.88,-4.55 3.35,-6.64 1.48,-2.09 3.25,-3.68 5.31,-4.76 0.99,-0.54 1.95,-0.85 2.89,-0.93 0.94,-0.08 1.83,0.11 2.68,0.57 0.81,0.56 1.26,1.21 1.32,1.97 0.24,2.68 -1.14,5.39 -4.13,8.13 -0.91,0.85 -2.24,1.65 -3.97,2.41 -1.73,0.76 -3.06,1.19 -4,1.27zm10.29 -11.72c-0.08,-0.89 -0.48,-1.31 -1.19,-1.24 -1.25,0.11 -3.01,1.82 -5.28,5.13 -1.35,2.01 -2.5,4.23 -3.45,6.65 0.76,-0.07 1.84,-0.43 3.24,-1.1 1.4,-0.67 2.6,-1.49 3.59,-2.48 2.27,-2.32 3.3,-4.64 3.09,-6.96zm22.41 -2.95c-4.63,10.13 -6.81,16.67 -6.54,19.61 0.1,1.16 0.58,1.7 1.43,1.63 2.28,-0.2 4.99,-4.34 8.13,-12.4 0.21,-0.65 0.46,-0.92 0.74,-0.81 0.28,0.11 0.43,0.28 0.45,0.5 0.02,0.22 -0.05,0.5 -0.2,0.83 -1.94,4.99 -3.64,8.46 -5.11,10.41 -1.47,1.95 -3.01,3 -4.64,3.15 -1.63,0.15 -2.92,-0.37 -3.88,-1.54 -0.5,-0.54 -0.79,-1.31 -0.88,-2.32 -0.09,-1 0.02,-2.24 0.34,-3.71 0.32,-1.47 1.34,-3.9 3.06,-7.29 0.42,-0.85 0.61,-1.51 0.57,-1.97 -0.04,-0.47 -0.44,-0.67 -1.2,-0.6 -0.76,0.07 -2.12,1.2 -4.08,3.4 -2.95,3.23 -5.66,7.93 -8.12,14.09 -0.23,0.47 -0.5,0.78 -0.83,0.92 -0.32,0.14 -0.98,0.28 -1.95,0.41 -0.98,0.13 -1.61,0.3 -1.91,0.51 0.59,-1.49 1.73,-4.54 3.43,-9.15 3.05,-8.15 5.1,-12.83 6.16,-14.05 0.49,-0.58 1.2,-0.92 2.14,-1 0.18,-0.02 0.64,0.01 1.39,0.08 0.75,0.07 1.3,0.04 1.65,-0.08 -1.57,1.04 -3.9,5.48 -6.97,13.31 1.87,-2.78 3.59,-5.01 5.17,-6.7 1.58,-1.69 3.52,-3.31 5.81,-4.84 2.29,-1.53 4,-2.35 5.11,-2.45 0.27,-0.02 0.52,-0 0.75,0.07zm6.2 11.19c-0.49,1.57 -0.65,3.3 -0.48,5.17 0.11,1.25 0.48,2.22 1.1,2.9 0.62,0.69 1.45,0.98 2.47,0.89 4.06,-0.36 7.4,-4.51 10.02,-12.43 0.25,-0.74 0.6,-1.09 1.05,-1.04 0.28,0.11 0.33,0.44 0.16,1 -1.51,4.23 -2.72,7.06 -3.63,8.49 -2,3.33 -4.67,5.14 -8.01,5.44 -1.78,0.16 -3.35,-0.28 -4.71,-1.33 -1.35,-1.05 -2.12,-2.58 -2.3,-4.58 -0.18,-2.01 0.11,-4.18 0.87,-6.52 0.76,-2.34 1.88,-4.55 3.35,-6.64 1.48,-2.09 3.25,-3.68 5.31,-4.76 0.99,-0.54 1.95,-0.85 2.89,-0.93 0.94,-0.08 1.83,0.11 2.68,0.57 0.81,0.56 1.26,1.21 1.32,1.97 0.24,2.68 -1.14,5.39 -4.13,8.13 -0.91,0.85 -2.24,1.65 -3.97,2.41 -1.73,0.76 -3.07,1.19 -4,1.27zm10.29 -11.72c-0.08,-0.89 -0.48,-1.31 -1.19,-1.24 -1.25,0.11 -3.01,1.82 -5.28,5.13 -1.35,2.01 -2.5,4.23 -3.45,6.65 0.76,-0.07 1.84,-0.43 3.24,-1.1 1.4,-0.67 2.6,-1.49 3.59,-2.48 2.27,-2.32 3.3,-4.64 3.09,-6.96zm-4.56 -4.99c-0.04,0 -0.13,-0.02 -0.24,-0.08 -0.12,-0.06 -0.18,-0.16 -0.2,-0.32 -0.01,-0.16 0.02,-0.31 0.1,-0.45 0.08,-0.14 0.67,-0.71 1.77,-1.71 1.1,-1 2.3,-2.04 3.6,-3.12 1.3,-1.08 2.24,-1.89 2.82,-2.41 0.58,-0.52 1.18,-0.81 1.78,-0.87 0.6,-0.05 1.15,0.01 1.64,0.19 0.49,0.18 0.75,0.44 0.78,0.77 0.03,0.33 -0.01,0.64 -0.12,0.92 -0.17,0.56 -2.08,1.86 -5.72,3.92 -3.64,2.06 -5.7,3.11 -6.2,3.15zm14.36 24.02c0.59,0.04 0.99,0.05 1.22,0.03 1.79,-0.16 3.45,-1.37 5.01,-3.62 0.83,-1.24 2.24,-4.32 4.24,-9.22 0.07,-0.23 0.22,-0.36 0.44,-0.38 0.4,-0.08 0.61,0.06 0.64,0.41 0.01,0.09 -0.07,0.36 -0.23,0.8 -0.16,0.44 -0.31,0.88 -0.46,1.32 -0.14,0.44 -0.38,1.08 -0.71,1.92 -0.33,0.84 -0.62,1.52 -0.86,2.03 -0.25,0.52 -0.56,1.15 -0.94,1.91 -0.38,0.75 -0.78,1.35 -1.19,1.79l-1.27 1.6c-0.69,0.83 -1.54,1.44 -2.53,1.85 -1.6,0.68 -3.21,0.87 -4.81,0.56 -0.99,0.54 -1.88,0.84 -2.68,0.92 -3.17,0.28 -5.2,-0.79 -6.09,-3.23 -0.19,-0.57 -0.32,-1.26 -0.39,-2.09 -0.07,-0.83 0.13,-1.64 0.62,-2.45 0.49,-0.81 1.05,-1.26 1.67,-1.36 1.89,-4.53 3.48,-8.61 4.77,-12.24 1.45,-3.95 3.35,-6.04 5.72,-6.25 0.63,-0.06 1.25,0.03 1.88,0.27 0.63,0.24 0.88,0.54 0.76,0.91 -0.12,0.37 -0.44,0.47 -0.95,0.29 -0.51,-0.18 -0.94,-0.25 -1.3,-0.22 -0.36,0.03 -0.66,0.13 -0.92,0.28 -1.45,0.85 -2.07,2.46 -1.86,4.82 0.11,1.25 0.38,2.26 0.81,3.03 0.43,0.77 0.91,1.61 1.44,2.5 1.23,2.23 1.92,4.08 2.05,5.55 0.13,1.47 -0.21,2.96 -1.02,4.48 -0.81,1.51 -1.82,2.77 -3.04,3.78zm-2.32 -0.26c1.83,-1.69 2.59,-4.24 2.29,-7.63 -0.12,-1.38 -0.45,-3.27 -0.98,-5.65 -0.53,-2.38 -0.83,-4 -0.91,-4.84 -0.08,-0.85 -0.11,-1.43 -0.09,-1.75 -2.78,7.09 -4.51,11.4 -5.18,12.95 0.94,-0.08 1.47,0.54 1.59,1.88 0.24,2.63 1.33,4.31 3.28,5.04zm-5.18 -1.36c0.02,0.27 0.07,0.56 0.14,0.86 0.46,1.17 1.34,1.7 2.64,1.59 0.54,-0.05 0.97,-0.18 1.31,-0.39 -1.74,-0.88 -2.79,-2.47 -3.13,-4.78 -0.73,0.88 -1.06,1.78 -0.97,2.72z"/>
   <path class="fil2" d="M116.52 102.23c-0.38,-4.26 1.03,-11.57 4.24,-21.93l-4 0.36c-0.26,0.02 -0.44,-0.1 -0.54,-0.38 -0.1,-0.28 -0.1,-0.56 0,-0.85 0.1,-0.29 0.28,-0.45 0.54,-0.47l4.61 -0.41c1.48,-4.22 2.9,-7.75 4.24,-10.61 1.35,-2.86 2.64,-4.82 3.89,-5.89 1.25,-1.07 2.17,-1.63 2.76,-1.68 0.59,-0.05 1.02,-0.04 1.28,0.04 1.23,0.46 1.92,1.57 2.08,3.34 0.16,1.77 -0.24,3.96 -1.19,6.58 -0.95,2.62 -1.9,5.05 -2.83,7.31l3.69 -0.33c0.26,-0.02 0.44,0.1 0.54,0.38 0.1,0.28 0.1,0.56 -0,0.85 -0.1,0.29 -0.28,0.45 -0.54,0.47l-4.46 0.4c-2.39,5.02 -5.42,9.56 -9.09,13.6l-1.07 8c-0.09,0.68 -0.11,1.34 -0.06,1.98 0.06,0.64 0.3,1.28 0.71,1.91 0.42,0.63 1.01,0.92 1.78,0.85 0.87,-0.08 1.82,-0.47 2.84,-1.18 2.3,-2.07 4.67,-6.18 7.11,-12.34 0.16,-0.48 0.38,-0.78 0.66,-0.91 0.27,-0.13 0.44,-0.08 0.52,0.15 0.07,0.23 0.03,0.6 -0.13,1.14 -1.38,3.69 -2.48,6.32 -3.32,7.89 -2.37,4.71 -5.12,7.2 -8.24,7.48 -1.59,0.14 -2.95,-0.33 -4.08,-1.42 -1.13,-1.09 -1.78,-2.53 -1.94,-4.32zm13.39 -24.45c2.84,-6.35 4.16,-10.71 3.95,-13.07 -0.09,-1.03 -0.32,-1.52 -0.68,-1.49 -0.56,0.05 -1.35,0.95 -2.36,2.69 -1.01,1.74 -2.59,5.81 -4.76,12.21l3.85 -0.34zm-0.85 1.78l-3.61 0.32c-0.49,1.49 -1.57,5.02 -3.24,10.6 2.51,-3.12 4.8,-6.76 6.85,-10.92zm2.22 23.06c-0.2,-2.2 0.51,-4.96 2.13,-8.25 -0.82,0.07 -1.09,-0.32 -0.8,-1.17l1.14 -2.82c1.44,-3.49 2.63,-6.44 3.55,-8.84 0.42,-1.12 1.37,-1.75 2.85,-1.88l4.69 -0.42c-1.73,1.5 -3.35,4.24 -4.88,8.23 -1.53,3.99 -2.71,7.12 -3.54,9.39 -0.83,2.27 -1.19,3.97 -1.09,5.1 0.1,1.13 0.36,1.91 0.79,2.33 0.43,0.43 0.97,0.61 1.64,0.55 0.97,-0.09 2.24,-1.23 3.8,-3.44 2.43,-3.42 5.65,-10.45 9.66,-21.1 0.47,-1.13 1.42,-1.75 2.85,-1.88l4.15 -0.37c-1.05,0.97 -1.85,1.95 -2.41,2.93 -0.56,0.98 -1.3,2.7 -2.21,5.16 -2.53,6.43 -3.88,10.66 -4.06,12.69 -0.09,0.73 -0.11,1.4 -0.05,2.02 0.15,1.64 0.79,2.46 1.93,2.46 2.77,-0.25 5.79,-4.83 9.08,-13.76 0.24,-0.75 0.53,-1.06 0.85,-0.93 0.32,0.13 0.49,0.32 0.52,0.57 0.02,0.26 -0.15,0.87 -0.53,1.83 -0.38,0.96 -0.75,1.9 -1.1,2.81 -0.36,0.91 -0.92,2.16 -1.68,3.75 -0.76,1.59 -1.49,2.86 -2.18,3.8 -1.8,2.43 -3.66,3.74 -5.58,3.91 -1.92,0.17 -3.32,-0.56 -4.19,-2.18 -0.38,-0.74 -0.62,-1.7 -0.72,-2.88 -0.11,-1.18 0.02,-2.66 0.38,-4.45 -3.16,6.9 -6.32,10.49 -9.5,10.77 -2.77,0.25 -4.49,-0.76 -5.15,-3.03 -0.18,-0.24 -0.28,-0.54 -0.31,-0.9zm38.17 -30.01c0.21,2.31 -1.06,4.62 -3.8,6.93 1.03,-0.04 2.4,-0.14 4.12,-0.29 1.72,-0.15 3.87,-0.48 6.46,-0.97 0.12,0.14 0.2,0.55 0.26,1.22 0.06,0.67 -0.16,1.68 -0.66,3.04 -0.5,1.36 -0.95,2.54 -1.35,3.53 -0.4,0.99 -0.78,1.93 -1.14,2.82 -0.36,0.88 -0.75,1.97 -1.18,3.25 -0.43,1.28 -0.78,2.45 -1.04,3.5 -0.93,4.01 -0.55,5.94 1.14,5.79 2.15,-0.19 4.95,-4.76 8.39,-13.7 0.3,-0.7 0.57,-0.98 0.82,-0.85 0.24,0.13 0.38,0.32 0.4,0.55 0.02,0.23 -0.24,1.06 -0.79,2.47 -0.54,1.42 -1.14,2.88 -1.78,4.38 -0.64,1.5 -1.7,3.28 -3.17,5.32 -1.74,2.53 -3.5,3.88 -5.3,4.04 -2,0.18 -3.49,-0.9 -4.48,-3.24 -0.2,-0.45 -0.33,-1.13 -0.42,-2.06 -0.08,-0.92 0.1,-2.18 0.55,-3.77 0.45,-1.59 1.22,-3.55 2.3,-5.86 1.08,-2.32 1.69,-3.68 1.81,-4.08 0.12,-0.4 0.16,-0.78 0.13,-1.14 -0.14,-1.59 -2.27,-2.25 -6.38,-1.99l-0.7 2.54c-2.47,8.75 -5.07,14.69 -7.78,17.83 -0.47,0.51 -0.74,0.38 -0.81,-0.39 -0.01,-0.15 0.02,-0.34 0.11,-0.55 2.53,-4.05 4.62,-8.76 6.25,-14.13 1.64,-5.37 2.66,-10.42 3.06,-15.16 0.17,-1.62 0.81,-2.48 1.94,-2.58 1.13,-0.1 2.01,0.54 2.65,1.93 0.2,0.45 0.32,0.98 0.38,1.59zm33.34 2.67c-5.31,11.64 -7.82,19.15 -7.52,22.53 0.12,1.33 0.67,1.96 1.64,1.87 2.61,-0.23 5.73,-4.98 9.34,-14.25 0.24,-0.75 0.53,-1.06 0.85,-0.93 0.32,0.13 0.49,0.32 0.52,0.57 0.02,0.26 -0.05,0.57 -0.23,0.95 -2.23,5.73 -4.18,9.72 -5.87,11.96 -1.69,2.24 -3.46,3.45 -5.33,3.62 -1.87,0.17 -3.36,-0.42 -4.46,-1.77 -0.57,-0.62 -0.91,-1.51 -1.01,-2.66 -0.1,-1.15 0.03,-2.57 0.39,-4.26 0.37,-1.69 1.54,-4.48 3.51,-8.38 0.48,-0.97 0.7,-1.73 0.65,-2.27 -0.05,-0.54 -0.51,-0.77 -1.38,-0.69 -0.87,0.08 -2.43,1.38 -4.69,3.91 -3.39,3.71 -6.5,9.11 -9.33,16.18 -0.26,0.54 -0.58,0.89 -0.95,1.05 -0.37,0.16 -1.12,0.32 -2.24,0.47 -1.12,0.15 -1.86,0.35 -2.2,0.58 0.67,-1.71 1.99,-5.22 3.94,-10.51 3.5,-9.36 5.86,-14.74 7.08,-16.14 0.56,-0.67 1.38,-1.05 2.45,-1.15 0.21,-0.02 0.74,0.01 1.6,0.09 0.86,0.08 1.49,0.05 1.89,-0.09 -1.81,1.2 -4.48,6.29 -8.01,15.29 2.14,-3.19 4.12,-5.76 5.94,-7.7 1.82,-1.95 4.04,-3.8 6.67,-5.56 2.63,-1.76 4.59,-2.7 5.87,-2.81 0.31,-0.03 0.59,-0 0.86,0.08zm16.38 -3.17c3.74,-0.34 5.82,1.86 6.25,6.57 0.19,2.15 -0.16,4.51 -1.07,7.07 -1.14,3.46 -3.02,6.68 -5.65,9.65 0.78,1.22 2.04,1.76 3.79,1.6 1.38,-0.12 2.63,-0.93 3.74,-2.43 1.4,-1.73 2.37,-3.22 2.93,-4.49 0.56,-1.26 0.97,-2.19 1.22,-2.78 0.26,-0.59 0.58,-1.43 0.98,-2.53 0.39,-1.09 0.63,-1.76 0.71,-2 0.08,-0.24 0.25,-0.37 0.51,-0.39 0.51,-0.1 0.78,0.06 0.82,0.47 0.01,0.15 -0.02,0.34 -0.11,0.55l-0.36 1.12c-0.24,0.75 -0.43,1.28 -0.55,1.6 -0.13,0.32 -0.35,0.9 -0.66,1.73 -0.31,0.83 -0.59,1.49 -0.83,1.97 -0.24,0.49 -0.57,1.14 -0.99,1.95 -0.42,0.81 -0.8,1.47 -1.14,1.96 -0.34,0.5 -0.77,1.05 -1.28,1.67 -0.51,0.61 -1.01,1.1 -1.5,1.45 -1.21,0.88 -2.38,1.38 -3.51,1.48 -2.1,0.19 -3.8,-0.33 -5.1,-1.56 -2.2,1.95 -4.3,3.02 -6.3,3.2 -3.74,0.34 -5.82,-1.86 -6.25,-6.57 -0.19,-2.15 0.16,-4.51 1.07,-7.07 1.22,-3.73 3.11,-6.97 5.68,-9.73 2.57,-2.76 5.11,-4.26 7.62,-4.48zm1.06 2.31c-1.38,0.12 -2.94,1.19 -4.67,3.21 -1.73,2.02 -3.2,4.68 -4.4,7.99 -1.46,3.85 -2.09,6.96 -1.88,9.32 0.21,2.36 1.21,3.46 3.01,3.3 1.28,-0.11 2.65,-0.94 4.12,-2.46 -0.93,-1.11 -1.45,-2.33 -1.57,-3.66 -0.09,-2.21 0.7,-3.4 2.4,-3.55 0.67,-0.06 1.24,0.12 1.72,0.54 0.48,0.42 0.73,0.83 0.77,1.21 0.03,0.38 0.02,0.79 -0.05,1.21 0.76,-1.36 1.59,-3.27 2.51,-5.73 1.05,-2.73 1.46,-5.35 1.23,-7.86 -0.23,-2.51 -1.29,-3.68 -3.18,-3.51zm34.88 -14.75c1.63,-2.52 2.37,-4.73 2.2,-6.63 -0.14,-1.54 -1.12,-2.64 -2.93,-3.3 -0.8,-0.24 -1.53,-0.33 -2.19,-0.27 -0.67,0.06 -1.43,0.17 -2.3,0.32 -0.86,0.15 -1.93,0.63 -3.21,1.41 -1.27,0.79 -2.28,1.69 -3.01,2.71 -0.74,1.02 -1.07,1.92 -1,2.69 0.01,0.15 0.03,0.28 0.03,0.38 0.17,-1 0.98,-2 2.44,-3.01 0.83,-0.49 1.53,-0.76 2.1,-0.81 0.56,-0.05 1.03,0.01 1.41,0.18 0.91,0.38 1.43,1.22 1.54,2.5 0.11,1.28 -0.35,2.41 -1.4,3.38 -1.05,0.97 -2.14,1.51 -3.27,1.61 -1.74,0.16 -2.96,-0.46 -3.65,-1.84 -0.3,-0.49 -0.49,-1.09 -0.55,-1.81 -0.06,-0.72 0.04,-1.61 0.3,-2.66 0.58,-1.65 2.08,-3.34 4.51,-5.05 3.16,-2.25 6.1,-3.49 8.81,-3.73 3.13,-0.28 5.46,0.67 7,2.86 0.42,0.63 0.66,1.36 0.74,2.18 0.26,2.87 -1.13,6.38 -4.17,10.53 -1.06,1.44 -2.9,3.68 -5.52,6.73 -2.62,3.05 -4.68,5.78 -6.17,8.19 -1.49,2.41 -2.68,5.23 -3.58,8.46 -0.16,0.48 -0.47,0.66 -0.92,0.55 -0.45,-0.11 -0.65,-0.43 -0.59,-0.95 0.25,-1.83 0.94,-3.96 2.06,-6.39 1.13,-2.43 2.09,-4.31 2.91,-5.65 0.81,-1.34 2.34,-3.65 4.57,-6.92 2.24,-3.28 3.52,-5.16 3.83,-5.65zm-11.91 37.58c-0.66,0.68 -1.43,1.06 -2.3,1.14 -0.87,0.08 -1.56,-0.13 -2.07,-0.63 -0.51,-0.5 -0.78,-0.95 -0.82,-1.36 -0.12,-1.38 0.19,-2.45 0.95,-3.19 0.76,-0.74 1.58,-1.15 2.45,-1.23 0.87,-0.08 1.56,0.13 2.07,0.63 0.51,0.5 0.78,0.95 0.82,1.36 0.04,0.41 0.03,0.89 -0.03,1.44 -0.05,0.55 -0.41,1.16 -1.08,1.84z"/>
  </g>
  <polygon class="fil0" points="130.4,42.9 124.1,35.08 132.9,30.93 134.54,31.45 134.33,33.92 134.14,35.66 134.31,38.22 133.71,42.51 "/>
 </g>
</svg>
