<?xml version="1.0" encoding="UTF-8"?>
<!DOCTYPE svg PUBLIC "-//W3C//DTD SVG 1.1//EN" "http://www.w3.org/Graphics/SVG/1.1/DTD/svg11.dtd">
<!-- Creator: CorelDRAW 2019 (64-Bit) -->
<svg xmlns="http://www.w3.org/2000/svg" xml:space="preserve" width="366.349mm" height="349.935mm" version="1.1" style="shape-rendering:geometricPrecision; text-rendering:geometricPrecision; image-rendering:optimizeQuality; fill-rule:evenodd; clip-rule:evenodd"
viewBox="0 0 3212.42 3068.49"
 xmlns:xlink="http://www.w3.org/1999/xlink">
 <defs>
  <style type="text/css">
   <![CDATA[
    .fil0 {fill:#FF8672}
    .fil1 {fill:white;fill-rule:nonzero}
   ]]>
  </style>
 </defs>
 <g id="Capa_x0020_1">
  <metadata id="CorelCorpID_0Corel-Layer"/>
  <g id="_2872637937248">
   <path class="fil0" d="M2089.57 654.94l15.11 -78.43c11,0.06 28.32,9.33 39.09,2.09 10.11,-6.8 12.38,-32.63 15.41,-48.04l58.37 -297.34c7.5,-38.16 -8.89,-70.16 -46.19,-79.72 -5.38,-1.38 -8.01,-3.09 -13.77,-3.08 -0.02,-20.5 4.22,-27.54 8.79,-50.81 1.22,-6.27 2.23,-11.42 3.47,-17.67 2.01,-10.18 3.24,-11.56 -3.39,-21.41 -4.15,-6.17 -15.54,-9.57 -25.8,-2.67 -7.09,4.76 -7.13,9.75 -8.32,15.92 -3.33,17.32 -12.25,62.01 -12.24,68.5 -13.35,0.02 -33.27,-9.66 -58.94,7.58 -19.14,12.86 -25.27,29.1 -28.48,45.49l-63.2 321.92c-1.37,6.95 -4.97,18.9 0.01,26.33 8.26,12.29 26.46,9.28 37.21,13.69l-14.85 77.16c-58.24,-10.7 -118.23,-19.09 -179.65,-24.97l-5.64 -34.36c-5.72,-19.27 -20.63,-199.21 -25.32,-239.8 -3.37,-29.26 39.14,-159.46 49,-193.18 9.3,-31.78 -16.44,-40.82 -38.65,-47.41 -57.84,-17.13 -91.91,-18.08 -152.37,3.15 -79.87,28.05 -81.1,47.56 -43.24,109.5l52.03 104.59c12.55,31.28 13.35,9.68 16.11,34.5 2.88,25.97 5.17,53.88 8.58,79.98 2.93,22.4 19.33,143.02 16.87,157.23l1.18 12.61 0.39 0.05c0.53,1.65 0.99,3.3 1.4,4.98 -30.66,-1.26 -61.61,-1.92 -92.82,-1.92 -79.7,0 -157.73,4.2 -233.51,12.19 -11.95,-54.84 -9.44,-87.82 2.87,-142.85 46.51,-207.9 17.01,-106.59 91.03,-167.75 81.36,-67.21 17.05,-152.96 11.6,-178.76 25.89,-29.05 93.68,-78.39 76.52,-120.13 -32.3,-9.99 -46.42,17.57 -64.3,37.37 -16.35,18.11 -35,42.06 -54.19,57.22 -22,6.65 -116.65,-37.66 -160.53,68.58 -30.09,72.84 14.25,126.39 62.25,155.77 3.46,25.89 -20.92,198.63 -48.19,218.72 -27.77,-15.62 -94.24,-152.79 -103.34,-201.12 72.67,-48.72 47.1,-165.52 -24.68,-200.06 -87.2,-41.96 -175.46,29.95 -171.88,113.27 1.91,44.37 25.83,81.91 59.76,100.79 54.39,30.25 62.35,-10.68 93.75,53.98 53.5,110.13 68.89,105.5 86.13,225.03 -356.68,62.7 -649.57,212.13 -807.73,406.61 277.03,-204.73 704.61,-336.02 1184.44,-336.02 479.84,0 907.42,131.29 1184.44,336.02 -62,-76.23 -144.71,-145.54 -243.84,-205.41l255.11 -479.18c-54.81,-64.38 -158.36,-98.18 -237.65,-128.42 -35.45,-13.52 -53.72,-25.84 -74.91,6.12 5.02,3.04 11.73,6.75 19.67,10.97l0.29 0.16c47.13,25.02 137.08,67.74 175.38,93.56l21.49 11.47 -4.47 8.39 -192.96 -102.93 -8.68 16.27 192.96 102.93 -10.06 18.85 -192.95 -102.93 -8.68 16.27 192.96 102.93 -9.14 17.14 -192.96 -102.93 -8.68 16.27 192.95 102.93 -8.58 16.09 0.58 1.19 -1.31 0.17 -0.75 1.4 -192.96 -102.93 -8.68 16.27 192.96 102.93 -9.14 17.14 -192.96 -102.93 -8.68 16.27 192.96 102.93 -10.06 18.85 -192.95 -102.93 -8.68 16.27 192.96 102.93 -5.17 9.69 -3.96 7.46 -192.97 -102.94 -8.68 16.27 193.01 102.96 -10.01 18.87 -193.06 -102.99 -8.68 16.27 193.19 103.06c-5.15,10.26 -7.56,16.16 -9.05,19.36l-194.18 -103.59 -8.68 16.27 192.96 102.93 -10.06 18.85 -192.95 -102.93 -8.68 16.27 192.95 102.93 -9.14 17.14 -192.95 -102.93 -8.68 16.27 192.95 102.93 -10.05 18.85 -192.96 -102.93 -8.68 16.27 192.95 102.93 -1.77 3.31 -6.35 -3.39 -0.11 0.08 -17.51 -4.61c-58.95,-24.83 -114.41,-71.06 -174.66,-91.16 -9.31,22.35 -11.54,36.45 -22.87,48.46 -54.71,-18.79 -111.92,-35.32 -171.31,-49.37zm456.26 1689.68c16.76,53.12 75.04,195.64 86.36,225.17 16.08,41.91 28.54,78.74 44.69,120.02 16.28,41.62 49.02,98.26 18,114.11 -25.85,13.21 -29.6,-4.23 -41.72,-26.07 -10.01,-18.04 -20.36,-39.54 -30.19,-59.94 -42.18,-87.58 -110.64,-239.57 -158.25,-327.74 -44.98,23.19 -92.69,44.6 -142.81,64.05 29.68,64.4 93.72,165.37 120.76,205.82 34.54,51.68 121.76,173.25 143.98,222.33 -0.69,1.14 -1.43,3.86 -2.43,3.16l-52.58 40.19c-99.27,72.18 -92.73,58.77 -163.56,-44.9 -32.5,-47.57 -144.89,-208.49 -164.86,-250.49l30.86 -27.35c1.68,-21.42 -9.02,-75.16 -21.34,-110.69 -50.63,15.75 -103.25,29.59 -157.54,41.4 24.3,40.42 32.17,104.3 13.48,155.08 -14.81,5.42 -41.16,7.92 -59.73,8.2 -5.95,18.93 7.41,59.23 9.33,77.85l24.92 151.15c3.18,16.24 16.89,6.4 22.78,30.27 2.84,11.48 7.91,51.94 -25.61,41.63 -11.99,-3.69 -18.79,-15.07 -22.31,-23.32 -8.74,-20.5 2.36,-22.56 3.25,-42.35 0.37,-8.35 -4.98,-29.4 -6.77,-38.55 -2.72,-14.04 -3.96,-26.08 -6.4,-38.64 -4.51,-23.32 -21.55,-143.1 -28.27,-154.98 -24.43,-3.15 -34.74,3.43 -65.76,-2.34 -9.96,-28.33 -36.72,-84.52 -45.6,-132.48 -18.08,2.21 -36.28,4.22 -54.62,5.99 0.6,18.72 -2.61,40.9 -3.27,62.4 -0.77,25.43 0.35,74.1 -3.36,96.79 -4.09,24.99 -11.02,0.84 -10.57,34.51l-5.23 148.38c-16.34,7.11 -21.52,-6.01 -23.37,16.84 -5.36,66.09 10.98,62.52 -20.44,90.8 -11.39,10.26 -43.27,42.3 -55.23,47.57 -30.61,-17.25 -15.23,-97.02 -15.56,-152.21 -7.79,-3.49 -4.35,-1.62 -10.96,-3.67 -11.11,-3.45 6.57,2.54 -4.74,-1.4l-6.73 -2.84c-1.81,-27.42 1.45,-65.12 2.53,-93.57l1.64 -69.56c-4.68,-2.9 -7.4,-8.64 -6.5,-18.45l7.66 -146.2c-19.9,0.53 -39.91,0.82 -60.03,0.82 -16.62,0 -33.18,-0.18 -49.65,-0.55l-0.45 2.6c-7.02,0.79 -37.86,12.83 -72.8,18.35 -24.62,3.9 -61.62,-2.43 -82.28,4.42 21.59,22.67 68.7,38.96 100.14,116.03 74.65,183.06 -75.06,366.72 -263.85,334.34 -255.84,-43.86 -268.47,-403.67 -22.96,-472.01l19.92 -7.15c-11.9,-9.21 -35.25,-11.67 -61.47,-25.36 -10.79,-5.64 -27.75,-15.7 -40.79,-22.58 -49.71,-11.32 -97.94,-24.37 -144.5,-39.03 -2.61,11.34 -9.9,26.36 -19.92,48.5 23.79,11.99 57.58,17.58 51.8,43.07 -4.36,19.24 -24.94,54.48 -32.61,75.7 6.18,4.17 51.41,15.8 35.96,50.2 -5.17,11.52 -16.31,17.3 -24.98,18.18 -14.95,1.51 -22.74,-7.72 -36.36,-11.06 -10.14,19.65 -23.17,59.39 -34.14,74.99 -15.18,21.59 -41.88,-0.11 -66.67,-9.37 -22.28,51.16 -24.5,72.69 -74.55,50.24 -18.47,-8.29 -37.4,-16.13 -55.71,-24.68 -16.94,-7.92 -25.16,-22.68 -18.67,-39.31l60.24 -136.3c-13.13,-8.24 -104.14,-46.04 -134.16,-59.94 -5.85,-2.71 -5.42,-3.08 -9.09,-2.5 -13.2,30.33 -26.93,60.47 -40.25,90.75 -12.08,27.46 -21.52,64.8 -50.74,60.5 -7.82,-1.15 -82.95,-34.15 -89.42,-39.4 -23.94,-19.44 -2.57,-50.02 9.67,-77.84 -22.7,-10.37 -57.43,-18.12 -51.78,-43.28 4.59,-20.47 25.32,-53.47 32.47,-75.84 -11.8,-5.51 -25.76,-9.81 -32.54,-19.52 -12.94,-18.53 -1.32,-45.88 22.23,-48.12 12.06,-1.14 23.58,6.26 35.32,11.03 12.27,-19.97 21.86,-57.16 34.32,-75.01 14.71,-21.05 43.77,-0.62 66.9,9.3 9.05,-20.47 16.34,-47.79 33.21,-56.89 -69.55,-49 -128.95,-103.14 -176.27,-161.33 277.03,204.73 704.61,336.02 1184.44,336.02 479.84,0 907.42,-131.29 1184.44,-336.02 -60.85,74.82 -141.66,142.95 -238.35,202.06zm-665.11 219.06c54.01,-6.93 106.78,-15.79 158.07,-26.49 24.42,31.61 36.17,78.83 17.04,136.75 -10.79,1.73 -50.58,1.38 -66.44,2.72 -15.4,1.32 -51.66,8.15 -65.11,6.58 -25.89,-49.44 -39.94,-89.3 -43.56,-119.56zm-1173.61 -188.17c44.45,24.25 91.76,46.72 141.61,67.2l-58.64 131.31c-12.24,-3.39 -87.18,-37.94 -108.73,-47.69l-31.4 -13.93c-1.94,-1.22 -1.42,-1.22 -2.14,-2.16 13.1,-29.97 26.69,-59.76 39.74,-89.74 6.55,-15.05 15.69,-30.65 19.55,-44.98zm471.7 165.38c105.44,20.96 216.9,34.25 332.44,38.77 -50.69,12.85 -130.81,10.29 -169.92,4.39 -64.74,-9.78 -115.38,-22.15 -162.52,-43.16zm494.29 201.57c-2.82,13.66 -10.78,165 -2.11,153.18l51.56 4.26c18.27,0.51 37.02,2.05 55.19,1.14 5.23,-39.87 3.17,-89.82 5.32,-131.16 1.4,-26.97 4.47,-23.35 -42.62,-25.46 -21.61,-0.96 -45.96,-2.69 -67.34,-1.97zm-356.28 -146.61c-131.12,-22.64 -245.51,58.58 -267.96,181.38 -22.64,123.88 57.18,242.62 190.83,265.3 119.97,20.36 235.16,-65.28 256.22,-184.84 21.23,-120.52 -59.39,-241.18 -179.09,-261.85zm-45.72 420.89c61.68,-1.68 99.58,-17.35 135.02,-50.36 36.18,-33.71 65.86,-83.99 65.96,-146.77 0.16,-101.67 -74.85,-196.72 -200.75,-201.61 -95.46,-3.7 -196.82,82.32 -198.54,196.48 -1.55,102.77 80.78,205.46 198.31,202.26zm-5.2 -15.41c57.95,-0.74 94.26,-16.27 127.4,-45.25 31.69,-27.72 61.47,-74.39 62.49,-132.77 1.7,-96.75 -69.19,-184.1 -180.54,-188.74 -89.85,-3.75 -183.8,70.75 -186.5,180.2 -2.21,89.64 72.89,187.9 177.16,186.57zm-607.92 -2516.89c-0.89,31.71 -56.92,79.95 -54.01,95.08 1.96,10.19 -3.68,-7.32 1.5,3.68 12.71,26.95 70.67,-46.92 79.47,-60.37 5.55,-8.49 11.04,-20.41 17.06,-26.23 21.16,2.07 42.77,8.81 68.49,8.86 23.07,0.04 57.26,-2.33 79.45,-12.36 -11.7,-26.9 -89.3,-14.04 -130.3,-35.83 12.66,-36.75 24.11,-57.22 23.85,-103.39 -0.13,-22.68 3.02,-99.34 -26.72,-112.98 -19.63,-9.01 -40.61,5.79 -36.96,31.64 3.05,21.58 10.84,38.45 13.53,62.11 3.73,32.9 -1.52,84.78 -15.1,108.04 -23.53,-1.77 -69.8,-39.56 -88.89,-59.33 -15.98,-16.54 -23.6,-34.32 -36.76,-52.43 -12.77,-17.58 -39.03,-21.63 -49.23,2.02 -15.61,36.19 73.5,110.02 106.21,128.48 17.35,9.79 35.15,14.26 48.4,23.01zm-122.89 337.14c46.68,9.24 130.43,-26.59 174.38,-60.47 22.99,-17.72 41.6,-36.5 63.84,-55.34 27.5,-23.3 43.54,-33.57 76.05,-52.77 -45.04,-10.58 -167.17,70.08 -216.09,91.02 7.34,-13.18 70.82,-54.89 83.82,-74.38 -9.26,-9.51 -17.22,-9.53 -27.06,-17.53 -12.87,-10.48 -12.4,-20.18 -19.9,-34.16 -13.62,13.41 -32,29.28 -43.96,44.26 -13.92,17.43 -25.02,31.7 -38.56,49.63 -16.9,22.37 -64.67,82.43 -52.53,109.77zm281.98 -184.75c32.89,-1.95 81.95,-25.61 111.76,-21.09 -10.21,8.45 -34.93,18.55 -48.29,26.14 -33.54,19.08 -96.57,59.23 -110.45,90.63 21.67,-7.25 53.98,-25.19 76.66,-35.3 25.99,-11.59 52.56,-22.66 78.43,-32.91 45,-17.83 121.74,-33.52 126.36,-80.11 -4.96,-22.07 -100,-23.24 -120.54,-23.9 -41.36,-1.33 -89.57,-7.58 -130.21,-3.86 7.72,13.22 16.86,26.46 18.24,41.92 1.44,16.13 -6.61,23.32 -1.95,38.47zm-111.53 -89.3c-61.95,50.26 36.15,143.57 79.87,102.47 31.84,-29.93 -1.28,-166.23 -79.87,-102.47zm-156.95 -353.66c-51.26,43.56 14.99,132.24 65.84,93.96 50.55,-38.05 -13.13,-138.76 -65.84,-93.96zm1136.66 240.55l92.94 -15.02c1.16,-10.58 -6.71,-88.42 -11.4,-99.67 -26.6,3.91 -71.33,4.91 -93.78,12.14 4.32,23.66 5.04,84.72 12.24,102.55zm-286.83 -291.82c99.01,29.66 46.95,163.24 -38.04,135.77 -86.22,-27.87 -50.63,-162.34 38.04,-135.77zm-288.54 36.07c95.4,11.87 78.92,145.89 -14.05,140.24 -87.46,-5.31 -83.17,-152.33 14.05,-140.24zm1024.46 281.96l-109.85 -22.85 -15.51 81.2 110.17 21.21 15.19 -79.56zm12.84 -65.93l-5.32 28.73 -110.1 -22.15 38.87 -199.13c2.5,-18.13 12.63,-24.89 27.75,-24.21l65.49 13.5c14.76,5.78 19.22,17.35 17.73,32.28l-6.28 27.57 -30.38 -5.91c-13.14,-2.99 -21.58,20.75 -6.42,26.14l30.86 6.22 -5.79 32.82 -31.27 -6.29c-14.92,-1.11 -17.45,23.16 -4.18,26.15l30.16 5.97 -6.63 32.65 -26.74 -5.56c-16.45,-3.17 -24.93,20.55 -7.15,26l29.39 5.23z"/>
   <g>
    <path class="fil1" d="M84.03 1896.7c-18.06,27.88 -26.15,52.3 -24.27,73.26 1.52,16.99 12.32,29.16 32.39,36.5 8.8,2.64 16.88,3.63 24.24,2.97 7.36,-0.66 15.82,-1.84 25.37,-3.56 9.55,-1.71 21.36,-6.91 35.43,-15.59 14.07,-8.68 25.16,-18.67 33.29,-29.96 8.12,-11.29 11.81,-21.18 11.05,-29.68 -0.15,-1.7 -0.28,-3.11 -0.38,-4.25 -1.87,11.01 -10.87,22.1 -27,33.25 -9.22,5.39 -16.95,8.37 -23.18,8.93 -6.23,0.56 -11.43,-0.12 -15.6,-2.03 -10.08,-4.24 -15.76,-13.43 -17.03,-27.59 -1.27,-14.16 3.9,-26.61 15.5,-37.36 11.6,-10.74 23.63,-16.67 36.09,-17.79 19.26,-1.72 32.71,5.06 40.36,20.37 3.34,5.41 5.36,12.08 6.07,20.01 0.71,7.93 -0.41,17.74 -3.36,29.42 -6.36,18.27 -22.96,36.88 -49.81,55.84 -34.89,24.82 -67.34,38.57 -97.36,41.26 -34.55,3.09 -60.33,-7.45 -77.34,-31.62 -4.62,-7.01 -7.34,-15.04 -8.15,-24.11 -2.84,-31.72 12.53,-70.49 46.11,-116.32 11.71,-15.89 32.04,-40.69 61,-74.4 28.96,-33.71 51.66,-63.86 68.12,-90.45 16.46,-26.6 29.66,-57.75 39.59,-93.47 1.81,-5.3 5.2,-7.32 10.16,-6.05 4.97,1.27 7.14,4.79 6.51,10.55 -2.76,20.23 -10.36,43.75 -22.8,70.55 -12.44,26.81 -23.14,47.6 -32.1,62.39 -8.95,14.79 -25.8,40.28 -50.53,76.46 -24.74,36.19 -38.86,57 -42.37,62.46zm131.55 -415.15c7.32,-7.51 15.8,-11.69 25.43,-12.55 9.63,-0.86 17.26,1.45 22.89,6.94 5.63,5.49 8.65,10.5 9.05,15.03 1.37,15.29 -2.15,27.03 -10.55,35.2 -8.4,8.17 -17.42,12.69 -27.05,13.55 -9.63,0.86 -17.26,-1.45 -22.89,-6.94 -5.63,-5.49 -8.65,-10.5 -9.05,-15.03 -0.41,-4.53 -0.31,-9.82 0.29,-15.87 0.6,-6.05 4.56,-12.83 11.88,-20.33zm895.28 -216.32c10.2,-0.91 16.05,7.13 17.58,24.12 1.52,16.99 -1.09,50.05 -7.82,99.19 -6.74,49.13 -20.16,115.99 -40.28,200.58 -20.12,84.59 -42.31,153.95 -66.59,208.07 8.45,-1.33 23.55,-3.25 45.3,-5.77 21.75,-2.52 39.55,-4.68 53.37,-6.49 13.83,-1.81 30.37,-5.15 49.63,-10.01 19.26,-4.86 34.87,-10.69 46.82,-17.47 28.75,-16.85 44.43,-39.38 47.05,-67.59 -1.79,-7.26 -1.73,-11.41 0.17,-12.43 1.91,-1.03 3.55,-0.17 4.94,2.56 4.62,7.01 7.32,14.76 8.08,23.26 0.76,8.5 -2.72,20.65 -10.44,36.48 -7.72,15.82 -24.39,30.45 -50.03,43.87 -25.63,13.43 -94.19,25.7 -205.67,36.82 -23.54,43.22 -54.73,82.26 -93.57,117.14 -38.84,34.88 -80.7,63.18 -125.57,84.89 -44.87,21.72 -83.31,34.01 -115.31,36.87 -32,2.86 -59.38,1.6 -82.12,-3.78 -43.75,-10.36 -66.92,-29.98 -69.5,-58.87 -3.35,-37.38 27.98,-73.3 93.98,-107.76 84.55,-44.11 205.27,-73.19 362.16,-87.23 43.34,-140.91 72.33,-253.98 86.96,-339.22 -41.6,115.63 -92.2,197.81 -151.78,246.53 -31.39,25.65 -62.66,39.87 -93.81,42.65 -31.15,2.79 -56.13,-3.54 -74.92,-18.99 -18.8,-15.45 -29.51,-37.9 -32.15,-67.35 -5.53,-61.74 27.51,-164.61 99.12,-308.62 22.25,-44.81 39.35,-89.74 51.31,-134.77 13.81,-49.77 19.18,-91.93 16.08,-126.48 -3.09,-34.55 -16.49,-58.19 -40.18,-70.91 -23.69,-12.72 -51.4,-17.67 -83.11,-14.83 -12.46,1.12 -25.64,3.72 -39.55,7.82 -100.23,28.38 -187.53,89.58 -261.9,183.59 -37.44,47.32 -63.74,94.77 -78.89,142.38 -15.41,51.05 -21.55,94.14 -18.4,129.25 1.32,14.73 4.52,28.14 9.6,40.25 15.03,40.33 39.94,66.65 74.72,78.95 17.65,5.84 35.54,7.95 53.66,6.33 62.87,-5.63 113.25,-45.54 151.14,-119.73 21.32,-42.45 30.64,-78.68 27.95,-108.7 -3.5,-39.08 -22.81,-57.05 -57.92,-53.91 -6.8,0.61 -14.92,2.34 -24.37,5.18 -9.45,2.84 -14.61,2.59 -15.48,-0.76 -0.97,-4.48 5.19,-9.03 18.48,-13.64 13.29,-4.62 26.16,-7.48 38.63,-8.6 29.45,-2.64 50.39,8.05 62.82,32.06 5.49,10.36 8.8,21.76 9.92,34.23 2.23,24.92 -3.96,54.59 -18.58,89.02 -28.92,65.96 -75.56,115.81 -139.91,149.55 -19.63,10.32 -37.94,16.24 -54.93,17.76 -54.94,4.92 -99.76,-11.05 -134.46,-47.91 -30.18,-30.98 -47.2,-68 -51.05,-111.05 -3.85,-43.05 2.77,-87.03 19.88,-131.95 17.1,-44.92 40.88,-87.02 71.34,-126.28 30.46,-39.27 63.83,-73.08 100.11,-101.45 36.28,-28.37 74.93,-52.67 115.94,-72.9 43.17,-21.56 83.45,-34.02 120.83,-37.37 37.38,-3.35 71.02,-0.65 100.93,8.09 31.24,10.91 54.11,27.27 68.63,49.09 14.51,21.82 22.91,45.48 25.19,70.97 5.73,64 -11.41,137.19 -51.43,219.56 -61.91,131.15 -97.42,231.96 -106.53,302.43 -1.2,12.1 -1.22,24.66 -0.05,37.69 1.17,13.03 6.5,24.82 16.01,35.39 9.51,10.57 22.48,15.12 38.9,13.65 23.22,-2.08 47.54,-14.25 72.95,-36.51 30.26,-25.55 59.22,-65.54 86.89,-119.97 46.1,-90.91 78.71,-182.61 97.84,-275.1 0.89,-9.21 5.35,-16.75 13.39,-22.61 8.04,-5.86 14.04,-8.97 18.01,-9.32zm-547.32 735.84c0.41,4.53 1.94,8.96 4.61,13.29 13.62,18.19 41.81,25.38 84.57,21.55 42.76,-3.83 82.91,-14.56 120.44,-32.19 37.53,-17.63 73.48,-41.83 107.83,-72.6 34.36,-30.77 61.71,-66.47 82.05,-107.12 -148.4,13.28 -260.19,46.42 -335.38,99.39 -44.58,31.4 -65.95,57.29 -64.13,77.68zm849.76 -581.35c-9.28,11.11 -21.66,35.48 -37.13,73.12 -15.47,37.64 -24.25,65.54 -26.33,83.72 -2.08,18.17 -2.63,32.78 -1.64,43.82 0.99,11.05 5.73,16.19 14.23,15.43 10.76,-0.96 23.19,-12.07 37.27,-33.31 20.64,-30.97 40.2,-70.68 58.7,-119.16 1.81,-5.3 4.1,-8.36 6.89,-9.18 4.38,-2.11 6.8,-0.61 7.25,4.49 0.25,2.83 -0.29,6.31 -1.64,10.42 -42.68,110.02 -81.86,166.62 -117.54,169.81 -16.43,1.47 -30.45,-5.27 -42.06,-20.21 -5.86,-8.04 -9.42,-19.14 -10.69,-33.3 -1.27,-14.16 0.02,-31.69 3.86,-52.59 -38.77,77.12 -74.58,117.15 -107.43,120.1 -9.06,0.81 -17.53,-1.29 -25.4,-6.29 -18.06,-10.37 -28.38,-30 -30.96,-58.89 -4.97,-55.51 14.06,-114.02 57.08,-175.54 24.35,-34.15 55.92,-57.82 94.7,-71 10.51,-3.8 20.58,-6.12 30.21,-6.99 26.05,-2.33 48.95,4.75 68.7,21.26 6.22,5.72 8.45,11.52 6.69,17.38 -1.76,5.87 -6.37,8.56 -13.83,8.09 -8.05,-19.83 -22.56,-28.81 -43.52,-26.93 -24.36,2.18 -52.65,24.13 -84.89,65.84 -18.36,24.48 -34.95,52.8 -49.77,84.96 -18.79,38.79 -27.2,69.24 -25.22,91.32 1.98,22.09 10.05,32.5 24.21,31.23 33.98,-3.04 73.78,-59.13 119.39,-168.27 8.89,-21.92 16.67,-37.03 23.35,-45.34 6.68,-8.31 15.68,-12.97 27.01,-13.98 2.27,-0.2 8.15,0.13 17.65,0.99 9.5,0.86 16.46,0.52 20.89,-1.01zm252.42 140.98c-4.21,-47.01 11.4,-127.77 46.82,-242.27l-44.18 3.95c-2.83,0.25 -4.81,-1.14 -5.94,-4.18 -1.13,-3.04 -1.12,-6.18 0.01,-9.42 1.14,-3.24 3.12,-4.99 5.95,-5.24l50.98 -4.56c16.39,-46.57 32.01,-85.65 46.88,-117.24 14.87,-31.59 29.2,-53.29 42.99,-65.08 13.79,-11.8 23.94,-17.99 30.45,-18.57 6.51,-0.58 11.24,-0.44 14.17,0.44 13.59,5.06 21.25,17.37 23,36.91 1.75,19.54 -2.65,43.77 -13.19,72.69 -10.54,28.92 -20.98,55.83 -31.31,80.74l40.78 -3.65c2.83,-0.25 4.81,1.14 5.94,4.18 1.13,3.04 1.13,6.18 -0.01,9.42 -1.14,3.24 -3.12,4.99 -5.95,5.24l-49.28 4.41c-26.44,55.46 -59.92,105.57 -100.45,150.3l-11.78 88.41c-1.04,7.51 -1.24,14.81 -0.61,21.89 0.63,7.08 3.26,14.12 7.89,21.13 4.62,7.01 11.18,10.13 19.68,9.37 9.63,-0.86 20.09,-5.22 31.37,-13.08 25.36,-22.83 51.55,-68.28 78.57,-136.35 1.81,-5.3 4.22,-8.66 7.23,-10.07 3.01,-1.41 4.92,-0.87 5.71,1.63 0.8,2.5 0.31,6.68 -1.45,12.55 -15.19,40.75 -27.44,69.83 -36.73,87.22 -26.17,52.01 -56.54,79.57 -91.09,82.66 -17.56,1.57 -32.58,-3.65 -45.08,-15.66 -12.49,-12.01 -19.63,-27.93 -21.4,-47.76zm147.95 -270.17c31.4,-70.18 45.93,-118.3 43.6,-144.35 -1.01,-11.33 -3.5,-16.81 -7.47,-16.46 -6.23,0.56 -14.91,10.47 -26.03,29.74 -11.12,19.26 -28.65,64.23 -52.59,134.88l42.48 -3.8zm-9.37 19.68l-39.93 3.58c-5.38,16.47 -17.3,55.5 -35.76,117.1 27.75,-34.46 52.98,-74.68 75.69,-120.68zm84.33 167.16c-6.21,19.97 -8.24,41.85 -6.11,65.64 1.42,15.86 6.09,28.15 14,36.86 7.92,8.71 18.39,12.48 31.42,11.32 51.54,-4.61 93.94,-57.22 127.18,-157.83 3.15,-9.42 7.61,-13.81 13.38,-13.19 2.32,0.36 3.58,1.68 3.78,3.94 0.2,2.27 -4.84,17.7 -15.12,46.32 -10.28,28.61 -21.18,52 -32.69,70.15 -25.34,42.23 -59.25,65.25 -101.73,69.06 -22.65,2.03 -42.57,-3.61 -59.75,-16.92 -17.18,-13.31 -26.91,-32.7 -29.19,-58.19 -2.28,-25.49 1.39,-53.08 11,-82.77 9.62,-29.69 23.8,-57.8 42.55,-84.31 18.75,-26.51 41.21,-46.65 67.39,-60.41 12.52,-6.83 24.73,-10.78 36.62,-11.84 11.89,-1.06 23.24,1.35 34.05,7.23 10.34,7.07 15.94,15.42 16.8,25.04 3.04,33.98 -14.43,68.38 -52.42,103.18 -11.6,10.74 -28.38,20.95 -50.36,30.63 -21.97,9.67 -38.9,15.04 -50.8,16.11zm130.56 -148.71c-1.01,-11.33 -6.05,-16.59 -15.11,-15.77 -15.86,1.42 -38.18,23.12 -66.97,65.09 -17.13,25.51 -31.74,53.65 -43.83,84.43 9.63,-0.86 23.34,-5.52 41.14,-13.96 17.8,-8.45 32.99,-18.94 45.57,-31.49 28.77,-29.41 41.84,-58.84 39.2,-88.29zm284.4 -37.45c-58.72,128.58 -86.4,211.56 -83.05,248.94 1.32,14.73 7.36,21.61 18.12,20.65 28.89,-2.59 63.3,-55.05 103.24,-157.4 2.69,-8.23 5.81,-11.65 9.36,-10.26 3.55,1.4 5.45,3.51 5.71,6.34 0.25,2.83 -0.57,6.33 -2.49,10.5 -24.59,63.29 -46.2,107.33 -64.82,132.12 -18.62,24.79 -38.27,38.11 -58.94,39.96 -20.67,1.85 -37.1,-4.67 -49.28,-19.57 -6.32,-6.86 -10.05,-16.66 -11.2,-29.4 -1.14,-12.74 0.31,-28.43 4.35,-47.06 4.04,-18.63 16.98,-49.48 38.82,-92.54 5.32,-10.75 7.71,-19.1 7.18,-25.05 -0.53,-5.95 -5.61,-8.49 -15.24,-7.63 -9.63,0.86 -26.9,15.26 -51.8,43.18 -37.43,41.03 -71.78,100.63 -103.04,178.79 -2.89,5.97 -6.4,9.85 -10.52,11.65 -4.12,1.8 -12.39,3.53 -24.8,5.22 -12.41,1.68 -20.5,3.83 -24.26,6.45 7.44,-18.94 21.96,-57.63 43.56,-116.09 38.7,-103.38 64.79,-162.81 78.24,-178.29 6.19,-7.41 15.23,-11.64 27.12,-12.71 2.26,-0.2 8.15,0.13 17.65,0.99 9.5,0.86 16.46,0.52 20.89,-1.01 -19.94,13.2 -49.44,69.51 -88.5,168.93 23.68,-35.23 45.55,-63.6 65.61,-85.09 20.06,-21.49 44.63,-41.96 73.72,-61.41 29.09,-19.45 50.71,-29.8 64.87,-31.07 3.4,-0.3 6.56,-0.02 9.5,0.86zm78.65 141.97c-6.21,19.97 -8.24,41.85 -6.11,65.64 1.42,15.86 6.09,28.14 14,36.86 7.92,8.71 18.39,12.48 31.42,11.32 51.54,-4.61 93.94,-57.22 127.18,-157.83 3.15,-9.42 7.61,-13.81 13.38,-13.19 3.55,1.39 4.21,5.62 1.99,12.67 -19.17,53.67 -34.52,89.59 -46.02,107.75 -25.34,42.23 -59.25,65.25 -101.73,69.05 -22.65,2.03 -42.57,-3.61 -59.75,-16.92 -17.18,-13.31 -26.91,-32.7 -29.19,-58.19 -2.28,-25.49 1.39,-53.08 11,-82.77 9.62,-29.69 23.8,-57.8 42.55,-84.31 18.75,-26.51 41.21,-46.65 67.39,-60.41 12.52,-6.83 24.73,-10.78 36.62,-11.84 11.89,-1.06 23.24,1.35 34.05,7.23 10.34,7.07 15.94,15.42 16.8,25.04 3.04,33.98 -14.43,68.38 -52.42,103.18 -11.6,10.74 -28.38,20.95 -50.36,30.63 -21.97,9.67 -38.9,15.04 -50.8,16.11zm130.56 -148.71c-1.01,-11.33 -6.05,-16.59 -15.11,-15.77 -15.86,1.42 -38.18,23.12 -66.97,65.09 -17.13,25.51 -31.74,53.66 -43.83,84.43 9.63,-0.86 23.34,-5.51 41.14,-13.96 17.8,-8.45 32.99,-18.94 45.57,-31.48 28.77,-29.41 41.84,-58.84 39.2,-88.29zm-57.91 -63.33c-0.57,0.05 -1.6,-0.28 -3.09,-1.01 -1.49,-0.72 -2.33,-2.08 -2.5,-4.06 -0.18,-1.98 0.23,-3.87 1.21,-5.67 0.98,-1.8 8.47,-9.04 22.46,-21.71 13.99,-12.67 29.23,-25.88 45.69,-39.63 16.47,-13.75 28.4,-23.95 35.8,-30.61 7.4,-6.66 14.92,-10.33 22.57,-11.01 7.65,-0.68 14.57,0.12 20.77,2.42 6.2,2.3 9.49,5.57 9.87,9.82 0.38,4.25 -0.13,8.15 -1.52,11.7 -2.22,7.05 -26.43,23.63 -72.62,49.75 -46.19,26.12 -72.4,39.45 -78.63,40.01zm182.3 304.83c7.46,0.47 12.61,0.58 15.44,0.33 22.66,-2.03 43.84,-17.34 63.54,-45.94 10.58,-15.79 28.49,-54.79 53.76,-117 0.88,-2.93 2.73,-4.53 5.57,-4.78 5.05,-1.02 7.77,0.73 8.18,5.26 0.1,1.13 -0.88,4.5 -2.95,10.11 -2.07,5.61 -3.99,11.2 -5.78,16.79 -1.78,5.58 -4.77,13.7 -8.95,24.35 -4.19,10.65 -7.84,19.26 -10.96,25.82 -3.12,6.56 -7.11,14.63 -11.96,24.19 -4.85,9.57 -9.88,17.16 -15.09,22.76l-16.17 20.29c-8.77,10.49 -19.49,18.3 -32.16,23.43 -20.35,8.67 -40.69,11.06 -61.02,7.17 -12.52,6.83 -23.88,10.7 -34.07,11.61 -40.22,3.6 -65.99,-10.08 -77.32,-41.04 -2.36,-7.21 -4.01,-16.06 -4.95,-26.54 -0.94,-10.48 1.7,-20.85 7.92,-31.11 6.22,-10.26 13.27,-16.03 21.14,-17.31 23.97,-57.53 44.17,-109.29 60.61,-155.3 18.35,-50.17 42.53,-76.6 72.55,-79.29 7.93,-0.71 15.88,0.43 23.86,3.43 7.98,3 11.17,6.85 9.6,11.56 -1.58,4.71 -5.61,5.93 -12.09,3.65 -6.48,-2.27 -11.99,-3.21 -16.52,-2.8 -4.53,0.41 -8.42,1.61 -11.67,3.61 -18.45,10.79 -26.33,31.19 -23.64,61.21 1.42,15.86 4.85,28.68 10.3,38.47 5.44,9.79 11.53,20.38 18.26,31.77 15.66,28.29 24.33,51.78 26.01,70.47 1.67,18.69 -2.63,37.63 -12.9,56.82 -10.27,19.19 -23.11,35.18 -38.52,47.98zm-29.42 -3.36c23.2,-21.49 32.87,-53.76 29.02,-96.8 -1.57,-17.56 -5.71,-41.45 -12.41,-71.68 -6.7,-30.23 -10.54,-50.73 -11.5,-61.49 -0.96,-10.76 -1.34,-18.15 -1.13,-22.17 -35.34,89.95 -57.27,144.72 -65.79,164.33 11.89,-1.06 18.6,6.9 20.12,23.89 2.99,33.42 16.89,54.73 41.69,63.92zm-65.77 -17.24c0.3,3.4 0.92,7.05 1.84,10.97 5.9,14.89 17.06,21.6 33.49,20.13 6.8,-0.61 12.36,-2.25 16.69,-4.92 -22.12,-11.15 -35.35,-31.38 -39.69,-60.68 -9.28,11.11 -13.39,22.61 -12.33,34.5z"/>
    <path class="fil1" d="M1356.78 2165.8c-4.84,-54.01 13.1,-146.79 53.8,-278.35l-50.76 4.54c-3.25,0.29 -5.53,-1.31 -6.83,-4.8 -1.3,-3.49 -1.29,-7.1 0.01,-10.83 1.31,-3.72 3.59,-5.73 6.84,-6.02l58.57 -5.24c18.82,-53.51 36.78,-98.4 53.86,-134.7 17.09,-36.29 33.55,-61.22 49.39,-74.77 15.84,-13.55 27.5,-20.67 34.99,-21.34 7.48,-0.67 12.91,-0.5 16.28,0.51 15.61,5.82 24.42,19.95 26.43,42.4 2.01,22.45 -3.04,50.29 -15.15,83.51 -12.11,33.23 -24.1,64.14 -35.97,92.76l46.85 -4.19c3.25,-0.29 5.53,1.31 6.82,4.8 1.3,3.49 1.29,7.1 -0.01,10.82 -1.31,3.72 -3.59,5.73 -6.84,6.02l-56.61 5.07c-30.37,63.72 -68.84,121.28 -115.4,172.68l-13.54 101.57c-1.2,8.63 -1.43,17.02 -0.7,25.15 0.73,8.13 3.75,16.23 9.06,24.28 5.31,8.05 12.85,11.64 22.61,10.77 11.06,-0.99 23.08,-6 36.04,-15.03 29.14,-26.22 59.23,-78.44 90.27,-156.65 2.08,-6.09 4.85,-9.94 8.31,-11.57 3.46,-1.62 5.65,-1 6.56,1.87 0.91,2.87 0.36,7.68 -1.66,14.42 -17.46,46.82 -31.52,80.22 -42.19,100.2 -30.07,59.76 -64.95,91.42 -104.65,94.97 -20.17,1.81 -37.44,-4.19 -51.79,-17.99 -14.36,-13.8 -22.55,-32.09 -24.59,-54.87zm169.98 -310.39c36.07,-80.63 52.77,-135.91 50.09,-165.85 -1.17,-13.01 -4.02,-19.32 -8.58,-18.91 -7.16,0.64 -17.13,12.03 -29.9,34.16 -12.78,22.13 -32.91,73.79 -60.41,154.97l48.81 -4.37zm-10.77 22.61l-45.88 4.11c-6.18,18.92 -19.87,63.77 -41.09,134.54 31.88,-39.59 60.87,-85.8 86.96,-138.65zm28.17 292.66c-2.5,-27.98 6.5,-62.9 27.03,-104.75 -10.41,0.93 -13.81,-4.01 -10.18,-14.83l14.51 -35.74c18.34,-44.28 33.36,-81.7 45.05,-112.26 5.28,-14.25 17.36,-22.22 36.23,-23.91l59.54 -5.33c-21.91,19.02 -42.57,53.83 -61.99,104.43 -19.41,50.61 -34.39,90.32 -44.93,119.14 -10.54,28.82 -15.17,50.39 -13.89,64.71 1.28,14.32 4.62,24.18 10.03,29.6 5.4,5.42 12.34,7.75 20.8,6.99 12.36,-1.11 28.44,-15.67 48.24,-43.68 30.88,-43.43 71.75,-132.69 122.63,-267.78 5.93,-14.31 18.01,-22.28 36.23,-23.91l52.71 -4.72c-13.33,12.34 -23.53,24.74 -30.62,37.18 -7.09,12.44 -16.45,34.27 -28.08,65.49 -32.05,81.58 -49.22,135.27 -51.51,161.05 -1.14,9.28 -1.36,17.83 -0.66,25.64 1.86,20.82 10.01,31.25 24.44,31.27 35.14,-3.15 73.55,-61.36 115.23,-174.63 3.09,-9.46 6.67,-13.39 10.75,-11.79 4.08,1.6 6.26,4.03 6.56,7.28 0.29,3.25 -1.97,11 -6.78,23.24 -4.81,12.24 -9.48,24.14 -14.02,35.69 -4.54,11.56 -11.65,27.44 -21.32,47.66 -9.67,20.22 -18.89,36.29 -27.66,48.23 -22.82,30.9 -46.42,47.45 -70.83,49.63 -24.4,2.19 -42.12,-7.05 -53.15,-27.71 -4.78,-9.41 -7.84,-21.6 -9.18,-36.57 -1.34,-14.97 0.25,-33.8 4.78,-56.51 -40.05,87.55 -80.24,133.13 -120.59,136.74 -35.14,3.15 -56.95,-9.66 -65.43,-38.42 -2.24,-3.08 -3.57,-6.9 -3.98,-11.45zm484.43 -380.85c2.62,29.28 -13.45,58.6 -48.21,87.95 13.07,-0.51 30.51,-1.75 52.31,-3.7 21.8,-1.95 49.15,-6.04 82.04,-12.26 1.48,1.84 2.59,6.98 3.35,15.44 0.76,8.46 -2.03,21.34 -8.35,38.63 -6.32,17.29 -12.04,32.24 -17.14,44.83 -5.1,12.59 -9.94,24.5 -14.51,35.74 -4.57,11.23 -9.57,24.96 -15.01,41.19 -5.43,16.23 -9.85,31.05 -13.24,44.48 -11.84,50.91 -7.02,75.41 14.45,73.48 27.33,-2.45 62.81,-60.39 106.44,-173.85 3.8,-8.87 7.25,-12.46 10.35,-10.77 3.1,1.69 4.79,4 5.05,6.93 0.26,2.93 -3.06,13.39 -9.98,31.39 -6.92,18 -14.44,36.55 -22.57,55.64 -8.13,19.09 -21.53,41.61 -40.2,67.55 -22.05,32.15 -44.46,49.24 -67.24,51.28 -25.38,2.27 -44.32,-11.45 -56.82,-41.16 -2.48,-5.68 -4.24,-14.38 -5.29,-26.09 -1.05,-11.71 1.3,-27.67 7.03,-47.86 5.74,-20.19 15.49,-45.01 29.25,-74.44 13.76,-29.44 21.4,-46.68 22.92,-51.74 1.52,-5.06 2.07,-9.86 1.66,-14.42 -1.81,-20.17 -28.8,-28.58 -80.97,-25.22l-8.92 32.28c-31.38,111.04 -64.32,186.47 -98.8,226.29 -5.98,6.44 -9.41,4.78 -10.28,-4.98 -0.18,-1.95 0.27,-4.29 1.34,-7.01 32.13,-51.42 58.59,-111.18 79.39,-179.29 20.8,-68.11 33.75,-132.24 38.86,-192.39 2.1,-20.52 10.31,-31.42 24.62,-32.7 14.32,-1.28 25.54,6.9 33.68,24.53 2.48,5.68 4.06,12.43 4.76,20.24zm423.18 33.94c-67.46,147.72 -99.26,243.06 -95.42,286.01 1.51,16.92 8.45,24.83 20.82,23.72 33.19,-2.97 72.72,-63.25 118.61,-180.84 3.09,-9.46 6.67,-13.39 10.75,-11.79 4.08,1.6 6.26,4.03 6.56,7.28 0.29,3.25 -0.66,7.27 -2.86,12.06 -28.26,72.72 -53.08,123.32 -74.47,151.8 -21.39,28.48 -43.96,43.79 -67.72,45.91 -23.75,2.13 -42.62,-5.37 -56.62,-22.48 -7.26,-7.88 -11.55,-19.14 -12.86,-33.78 -1.31,-14.64 0.36,-32.66 5,-54.07 4.64,-21.41 19.51,-56.85 44.6,-106.32 6.11,-12.35 8.86,-21.95 8.25,-28.78 -0.61,-6.83 -6.45,-9.75 -17.51,-8.76 -11.06,0.99 -30.9,17.53 -59.51,49.6 -43.01,47.14 -82.47,115.61 -118.38,205.41 -3.32,6.86 -7.35,11.32 -12.09,13.38 -4.73,2.06 -14.23,4.06 -28.49,5.99 -14.26,1.93 -23.55,4.4 -27.87,7.41 8.55,-21.76 25.23,-66.21 50.05,-133.37 44.47,-118.77 74.43,-187.05 89.89,-204.83 7.11,-8.51 17.5,-13.37 31.16,-14.6 2.6,-0.23 9.36,0.15 20.27,1.14 10.91,0.99 18.91,0.6 24,-1.17 -22.91,15.17 -56.8,79.86 -101.68,194.08 27.21,-40.48 52.33,-73.07 75.37,-97.76 23.04,-24.69 51.28,-48.21 84.7,-70.55 33.42,-22.34 58.27,-34.24 74.53,-35.7 3.91,-0.35 7.54,-0.02 10.91,0.99zm207.94 -40.26c47.5,-4.25 73.93,23.55 79.29,83.42 2.45,27.33 -2.09,57.25 -13.61,89.77 -14.43,43.93 -38.33,84.77 -71.68,122.52 9.92,15.51 25.94,22.28 48.06,20.3 17.57,-1.57 33.38,-11.84 47.42,-30.81 17.72,-21.92 30.12,-40.91 37.21,-56.95 7.09,-16.05 12.27,-27.83 15.53,-35.34 3.26,-7.51 7.39,-18.21 12.38,-32.1 4.99,-13.89 8,-22.36 9.04,-25.41 1.04,-3.04 3.19,-4.71 6.44,-5 6.45,-1.23 9.91,0.75 10.37,5.96 0.17,1.95 -0.27,4.29 -1.34,7.01l-4.63 14.19c-3.09,9.46 -5.43,16.23 -7.04,20.31 -1.6,4.08 -4.39,11.38 -8.37,21.9 -3.98,10.52 -7.49,18.87 -10.55,25.05 -3.06,6.18 -7.24,14.42 -12.54,24.74 -5.31,10.31 -10.14,18.62 -14.5,24.91 -4.36,6.29 -9.79,13.34 -16.31,21.14 -6.52,7.8 -12.86,13.94 -19.01,18.43 -15.4,11.22 -30.25,17.47 -44.57,18.75 -26.68,2.39 -48.26,-4.21 -64.74,-19.79 -27.95,24.81 -54.62,38.34 -80,40.62 -47.5,4.25 -73.93,-23.55 -79.29,-83.42 -2.45,-27.33 2.09,-57.25 13.61,-89.77 15.44,-47.3 39.47,-88.48 72.08,-123.54 32.61,-35.06 64.86,-54.02 96.74,-56.87zm13.45 29.3c-17.57,1.57 -37.34,15.15 -59.32,40.73 -21.98,25.58 -40.6,59.39 -55.86,101.43 -18.58,48.89 -26.53,88.3 -23.85,118.24 2.68,29.93 15.41,43.88 38.18,41.84 16.27,-1.46 33.7,-11.87 52.3,-31.25 -11.75,-14.03 -18.38,-29.51 -19.9,-46.43 -1.2,-28.1 8.93,-43.11 30.41,-45.03 8.46,-0.76 15.72,1.54 21.77,6.91 6.06,5.36 9.3,10.48 9.74,15.36 0.44,4.88 0.24,9.98 -0.6,15.3 9.61,-17.26 20.23,-41.5 31.86,-72.71 13.3,-34.64 18.52,-67.91 15.66,-99.79 -2.86,-31.88 -16.32,-46.75 -40.4,-44.6zm442.73 -187.22c20.75,-32.03 30.04,-60.09 27.89,-84.16 -1.75,-19.52 -14.15,-33.5 -37.21,-41.93 -10.11,-3.03 -19.4,-4.17 -27.85,-3.41 -8.46,0.76 -18.18,2.12 -29.15,4.09 -10.97,1.97 -24.54,7.94 -40.71,17.91 -16.16,9.97 -28.91,21.45 -38.24,34.42 -9.33,12.97 -13.56,24.34 -12.69,34.1 0.17,1.95 0.32,3.58 0.44,4.88 2.15,-12.66 12.49,-25.39 31.02,-38.2 10.6,-6.2 19.47,-9.61 26.63,-10.26 7.16,-0.64 13.13,0.14 17.92,2.33 11.59,4.87 18.11,15.43 19.56,31.7 1.46,16.27 -4.48,30.58 -17.8,42.92 -13.33,12.34 -27.15,19.16 -41.46,20.44 -22.13,1.98 -37.58,-5.82 -46.37,-23.4 -3.84,-6.22 -6.16,-13.88 -6.98,-22.99 -0.82,-9.11 0.47,-20.38 3.86,-33.8 7.3,-20.99 26.38,-42.38 57.23,-64.16 40.08,-28.51 77.37,-44.32 111.86,-47.4 39.69,-3.55 69.31,8.55 88.85,36.32 5.31,8.05 8.43,17.28 9.37,27.7 3.26,36.44 -14.4,80.99 -52.98,133.64 -13.45,18.26 -36.81,46.75 -70.08,85.48 -33.27,38.73 -59.35,73.37 -78.27,103.92 -18.91,30.56 -34.07,66.35 -45.49,107.38 -2.08,6.09 -5.97,8.41 -11.68,6.95 -5.71,-1.46 -8.2,-5.5 -7.48,-12.12 3.17,-23.24 11.9,-50.26 26.2,-81.06 14.3,-30.8 26.59,-54.69 36.88,-71.68 10.29,-16.99 29.64,-46.27 58.06,-87.85 28.42,-41.57 44.65,-65.49 48.68,-71.76zm-151.13 476.96c-8.41,8.62 -18.15,13.43 -29.21,14.42 -11.06,0.99 -19.83,-1.67 -26.3,-7.98 -6.47,-6.31 -9.94,-12.07 -10.4,-17.27 -1.57,-17.57 2.47,-31.05 12.12,-40.44 9.66,-9.39 20.01,-14.58 31.08,-15.57 11.06,-0.99 19.83,1.67 26.3,7.98 6.47,6.31 9.94,12.07 10.4,17.27 0.47,5.21 0.35,11.28 -0.34,18.23 -0.69,6.95 -5.24,14.74 -13.65,23.36z"/>
   </g>
  </g>
 </g>
</svg>
