<?xml version="1.0" encoding="UTF-8"?>
<!DOCTYPE svg PUBLIC "-//W3C//DTD SVG 1.1//EN" "http://www.w3.org/Graphics/SVG/1.1/DTD/svg11.dtd">
<!-- Creator: CorelDRAW 2019 (64-Bit) -->
<svg xmlns="http://www.w3.org/2000/svg" xml:space="preserve" width="82.5076mm" height="82.5077mm" version="1.1" style="shape-rendering:geometricPrecision; text-rendering:geometricPrecision; image-rendering:optimizeQuality; fill-rule:evenodd; clip-rule:evenodd"
viewBox="0 0 174.82 174.82"
 xmlns:xlink="http://www.w3.org/1999/xlink">
 <defs>
  <style type="text/css">
   <![CDATA[
    .fil0 {fill:#FEFEFE}
    .fil1 {fill:#FF8672}
   ]]>
  </style>
 </defs>
 <g id="Capa_x0020_1">
  <metadata id="CorelCorpID_0Corel-Layer"/>
  <g id="_1616726573712">
   <path class="fil0" d="M87.41 0c48.28,0 87.41,39.14 87.41,87.41 0,48.28 -39.13,87.41 -87.41,87.41 -48.28,0 -87.41,-39.13 -87.41,-87.41 0,-48.28 39.13,-87.41 87.41,-87.41zm-0 12.25c41.51,0 75.16,33.65 75.16,75.16 0,41.51 -33.65,75.16 -75.16,75.16 -41.51,0 -75.16,-33.65 -75.16,-75.16 0,-41.51 33.65,-75.16 75.16,-75.16z"/>
   <path class="fil1" d="M174.72 83.18c0.07,1.4 0.1,2.81 0.1,4.23 0,40.37 -27.37,74.35 -64.57,84.39l-5.61 -11.22c33.2,-7.79 57.93,-37.59 57.93,-73.17 0,-2.52 -0.13,-5.01 -0.37,-7.46l12.52 3.23z"/>
  </g>
 </g>
</svg>
